<svg width="31.347mm" height="13.959mm" version="1.1" viewBox="0 0 31.347 13.959" xmlns="http://www.w3.org/2000/svg">
 <g transform="translate(-32.556 -28.445)" display="none">
  <path d="m34.298 26.835c0.8355 2.0732 1.4816 4.2226 1.9278 6.4128 0.40753 2.0008 0.64779 4.0311 0.93667 6.0524 0.0509 0.35617 0.10225 0.72695-0.0077 1.0695-0.05499 0.17128-0.15161 0.33179-0.29058 0.44602-0.13898 0.11422-0.32218 0.17884-0.50088 0.15824-0.11299-0.01303-0.22105-0.0592-0.31302-0.12612-0.09197-0.06692-0.16821-0.15414-0.22861-0.25052-0.1208-0.19276-0.17765-0.41813-0.22133-0.64138-0.15651-0.80003-0.16572-1.6221-0.12472-2.4363 0.05038-1.0004 0.18219-2.0191 0.62555-2.9172 0.22168-0.44909 0.52096-0.86307 0.89934-1.1912 0.37838-0.32809 0.83762-0.56821 1.3297-0.66141 0.50907-0.09642 1.0473-0.03212 1.5195 0.18131 0.47212 0.21343 0.87594 0.57499 1.1402 1.0206 0.25557 0.43092 0.37876 0.92904 0.43527 1.4268 0.05652 0.49781 0.04954 1.0003 0.06299 1.5011 0.02286 0.85155 0.11236 1.7272 0.50948 2.4808 0.19856 0.37681 0.47398 0.71703 0.82125 0.96364 0.34727 0.24662 0.76836 0.39616 1.1943 0.39178 0.48905-5e-3 0.95571-0.2081 1.3744-0.46083 0.75105-0.45332 1.3997-1.0832 1.8443-1.8395s0.68067-1.6392 0.63738-2.5154c-0.04225-0.85517-0.36103-1.7087-0.95511-2.3253-0.29704-0.30829-0.65967-0.55476-1.0598-0.70692-0.40015-0.15216-0.83765-0.20889-1.262-0.15261-0.51079 0.06773-0.9954 0.29892-1.385 0.63617-0.38956 0.33725-0.68508 0.77787-0.87132 1.2583-0.3725 0.96085-0.30254 2.0524 0.02365 3.0299 0.2548 0.76359 0.66755 1.4837 1.2544 2.0347s1.3549 0.92406 2.1587 0.96883c0.40896 0.02278 0.82556-0.03976 1.1995-0.20698 0.65644-0.29358 1.1444-0.8992 1.3854-1.5767 0.24098-0.67752 0.25199-1.4209 0.13109-2.1298-0.09531-0.55887-0.26996-1.1023-0.35686-1.6625s-0.07959-1.1571 0.1729-1.6647c0.1561-0.31381 0.40293-0.58168 0.70244-0.76371s0.65066-0.27775 1.0011-0.27389c0.53563 0.0059 1.0538 0.2434 1.4543 0.59908 0.40053 0.35568 0.69027 0.82305 0.89544 1.3179 0.15228 0.36726 0.26167 0.77196 0.17787 1.1606-0.0419 0.19432-0.13349 0.38012-0.27486 0.51987-0.14137 0.13975-0.33414 0.23062-0.5329 0.23396-0.21777 0.0037-0.43064-0.09818-0.58174-0.25504-0.1511-0.15686-0.24319-0.36474-0.2816-0.57913-0.07682-0.42877 0.05184-0.86499 0.18353-1.2802 0.11331-0.35728 0.23166-0.71735 0.42812-1.0365 0.19646-0.3192 0.48094-0.59826 0.83648-0.7169 0.23938-0.07987 0.50156-0.0832 0.74682-0.02381s0.47377 0.17998 0.67104 0.33734c0.39454 0.31473 0.65794 0.766 0.85329 1.2314 0.64456 1.5354 0.61813 3.3103 0.07743 4.8853-0.093 0.27088-0.20211 0.53969-0.36875 0.77262s-0.39636 0.42938-0.67051 0.51225c-0.26502 0.0801-0.55998 0.04745-0.80674-0.0781-0.24676-0.12555-0.44446-0.34075-0.55992-0.59239-0.11546-0.25164-0.14993-0.53783-0.10978-0.81176 0.04015-0.27393 0.15345-0.5353 0.31589-0.7595 0.32488-0.4484 0.8352-0.73767 1.3698-0.88195 0.53459-0.14428 1.096-0.15504 1.6493-0.13312 0.65571 0.02598 1.3098 0.09654 1.966 0.09753 0.65622 9.89e-4 1.3223-0.07026 1.9305-0.31654 0.60826-0.24628 1.1571-0.68241 1.4436-1.2728 0.14323-0.2952 0.21832-0.625 0.20325-0.95277-0.01508-0.32777-0.1219-0.6527-0.3154-0.91768-0.16965-0.23234-0.40288-0.41546-0.66269-0.53901-0.2598-0.12354-0.54561-0.18857-0.83282-0.20495-0.66537-0.03794-1.334 0.1875-1.8722 0.58058-0.53818 0.39308-0.94918 0.94662-1.2186 1.5562-0.27396 0.61993-0.4062 1.3034-0.37191 1.9803 0.03429 0.6769 0.23611 1.346 0.5915 1.9232 0.40768 0.66202 1.022 1.2008 1.7449 1.487 0.72291 0.28615 1.5519 0.31162 2.2798 0.03852 0.5137-0.19272 0.97207-0.53052 1.3082-0.96412 0.33618-0.4336 0.54912-0.96168 0.60778-1.5072" fill="none" stroke="#020000" stroke-linecap="round" stroke-linejoin="round" stroke-width="1.2"/>
 </g>
 <g transform="matrix(.76088 0 0 .76088 3.6025 -1.5429)">
  <path d="m2.1655 12.515c-0.75341-0.32318-1.5963-0.43468-2.4078-0.31851-0.81153 0.11617-1.5893 0.45968-2.2218 0.98126-0.88223 0.72754-1.4752 1.8296-1.482 2.9731-0.00588 0.99161 0.44248 1.9843 1.214 2.6073 0.55869 0.45117 1.2687 0.70295 1.9858 0.73944 0.71719 0.0365 1.4393-0.13764 2.078-0.46587 0.77916-0.40039 1.4371-1.0302 1.8802-1.7858 0.44315-0.75566 0.67133-1.6343 0.66245-2.5102-0.0099-0.97737-0.31569-1.9498-0.86692-2.757-0.75573 1.4199-0.98096 3.1144-0.62237 4.6823 0.15447 0.67542 0.42212 1.3407 0.88611 1.8552 0.23199 0.25728 0.51157 0.47374 0.82624 0.61863 0.31467 0.14489 0.66486 0.21685 1.0103 0.191 0.40129-0.03003 0.7876-0.1916 1.1094-0.43325s0.58082-0.56103 0.77774-0.91197c0.39384-0.70189 0.53865-1.513 0.65334-2.3096 0.41495-2.8821 0.51512-5.8113 0.26617-8.7125-0.11795-1.3746-0.31403-2.7424-0.58697-4.0948-1.4978 3.4761-1.9577 7.3918-1.3061 11.12 0.27244 1.5588 0.73473 3.0843 1.3734 4.5321 0.65097 0.44941 1.4622 0.66136 2.2498 0.58782 0.7876-0.07354 1.5455-0.432 2.1021-0.99416 0.43247-0.43685 0.74303-0.99271 0.89076-1.5894 0.14773-0.59669 0.13252-1.2326-0.04119-1.8222-0.1737-0.58966-0.50519-1.1317-0.94922-1.5568s-0.99938-0.73243-1.5948-0.88534c-1.0701-0.27482-2.2618-0.0269-3.1335 0.6519-0.8717 0.67881-1.404 1.7734-1.3998 2.8782 0.00425 1.1048 0.545 2.1953 1.4219 2.8674 0.8769 0.67208 2.0704 0.91083 3.1384 0.62778l7.4524 0.17237c0.98766-0.34948 1.8252-1.1037 2.276-2.0494s0.50905-2.0714 0.15846-3.0586c-0.19327-0.54427-0.50922-1.0492-0.93975-1.4342s-0.978-0.64569-1.5529-0.70124c-0.55603-0.05373-1.1233 0.08526-1.6114 0.35691-0.48812 0.27165-0.89883 0.67181-1.2163 1.1315-0.32378 0.46877-0.55468 1.004-0.65299 1.5652-0.09831 0.56117-0.0621 1.1479 0.12413 1.6864 0.22632 0.65433 0.66922 1.2232 1.2144 1.65 0.62339 0.48801 1.3829 0.79732 2.1683 0.89704 0.78538 0.09973 1.5946-0.0089 2.331-0.29959 1.4728-0.58142 2.6122-1.8961 3.0754-3.4102 0.35207-1.1507 0.33032-2.4125-0.06118-3.5504-0.45025 0.75522-0.8076 1.5658-1.0614 2.4076-0.21686 0.71919-0.35887 1.4736-0.28198 2.2208 0.07689 0.74723 0.39204 1.4904 0.96646 1.9745 0.41492 0.34965 0.94904 0.54888 1.4906 0.58204 0.54159 0.03316 1.0887-0.09621 1.5706-0.34552 0.96388-0.49861 1.6365-1.4537 1.9757-2.4845 0.47629-1.4472 0.33623-3.0862-0.37867-4.4316-0.45487 1.0971-0.77959 2.2481-0.96518 3.4212-0.07039 0.44493-0.12093 0.89501-0.1049 1.3452 0.01603 0.45018 0.10038 0.90208 0.28979 1.3108 0.18941 0.40871 0.48834 0.77286 0.87642 1.0016s0.86773 0.31317 1.3009 0.18971c0.27749-0.07908 0.52864-0.2396 0.73157-0.44472 0.20293-0.20512 0.35887-0.45383 0.47397-0.71842 0.2302-0.52918 0.29751-1.1127 0.35588-1.6868 0.28011-2.7553 0.41392-5.5254 0.40711-8.2949-0.0045-1.8245-0.06996-3.6489-0.19628-5.4691-0.3746 2.6912-0.59039 5.4045-0.64586 8.121-0.03647 1.7861-0.0025 3.5853 0.34637 5.3374 0.14733 0.7399 0.35681 1.483 0.7757 2.1104 0.20945 0.31372 0.47056 0.59528 0.78085 0.80978 0.31029 0.2145 0.67075 0.36054 1.0458 0.40075 0.44524 0.04773 0.90202-0.05598 1.2946-0.27146 0.39254-0.21548 0.72138-0.53972 0.96238-0.91713 0.482-0.75482 0.60413-1.6958 0.50786-2.5862-0.17132-1.5845-1.0142-3.0748-2.2474-4.0844-1.4883-1.2185-3.5363-1.7229-5.4203-1.3351l6.5036-1.4766" fill="none" stroke="#020000" stroke-linecap="round" stroke-linejoin="round" stroke-width="1.5771"/>
 </g>
 <g transform="translate(-4.8914 -1.06)" display="none" fill="none" stroke="#020000" stroke-linecap="round" stroke-linejoin="round" stroke-width="1.2">
  <path d="m1.4742 4.4628c0.73336 2.2142 1.1909 4.5197 1.3586 6.8462 0.14822 2.0559 0.070389 4.128-0.23164 6.167-0.33677-1.9999-0.56786-4.0175-0.692-6.0418-0.060095-0.97996-0.094698-1.9694 0.063025-2.9384 0.15772-0.96905 0.52027-1.9253 1.1727-2.6589 0.47969-0.53937 1.1184-0.94887 1.8251-1.0957 0.70673-0.14681 1.4794-0.01585 2.0632 0.40862 0.48592 0.35329 0.8243 0.89744 0.94779 1.4854 0.1235 0.58795 0.035467 1.2146-0.22535 1.7558-0.26082 0.54121-0.69019 0.99621-1.2041 1.3075-0.51386 0.31126-1.1097 0.48034-1.7098 0.50827-0.38535 0.017935-0.78689-0.025564-1.1193-0.22133-0.1662-0.097882-0.31191-0.23342-0.41041-0.39926-0.098506-0.16584-0.14812-0.36253-0.12719-0.55427 0.024089-0.22073 0.14159-0.42703 0.30946-0.57236 0.16787-0.14533 0.38334-0.23114 0.60389-0.25683 0.22055-0.025686 0.44582 0.00699 0.65582 0.079117 0.21 0.072124 0.40532 0.18292 0.58515 0.31314 0.35968 0.26045 0.65673 0.59602 0.97679 0.90385s0.67699 0.59613 1.101 0.72805c0.34351 0.10687 0.71793 0.10405 1.0645 0.0077 0.34661-0.096405 0.66528-0.28439 0.92886-0.52924 0.52717-0.48969 0.82258-1.1909 0.93295-1.9019 0.13751-0.88584 0.003881-1.8119-0.37846-2.6227-0.43481 0.85332-0.62875 1.8278-0.5538 2.7825 0.06317 0.80476 0.31595 1.594 0.73207 2.2858-0.52796-0.74029-0.83268-1.6377-0.86467-2.5464-0.031267-0.88804 0.19774-1.7837 0.65141-2.5477 1.1792-0.34362 2.4382-0.41023 3.6471-0.19295 0.85581 0.15382 1.7006 0.45659 2.3819 0.99686 0.68131 0.54027 1.1851 1.338 1.2509 2.205 0.05098 0.67182-0.16843 1.3609-0.60093 1.8775-0.43249 0.51662-1.0735 0.85415-1.7445 0.91523-0.67098 0.06107-1.3636-0.15587-1.8778-0.59123-0.5142-0.43537-0.8427-1.0841-0.88618-1.7564-0.039846-0.61613 0.1548-1.2375 0.50255-1.7477 0.34774-0.51017 0.84262-0.91175 1.3941-1.1893 1.2874-0.64789 2.8568-0.60739 4.1944-0.070757 0.73742 0.29585 1.4272 0.74421 1.9178 1.3692 0.54173 0.69016 0.8141 1.5604 0.91853 2.4316 0.10443 0.87114 0.05145 1.7525 4e-3 2.6286-0.04149 0.76624-0.07904 1.5362-0.23197 2.2881-0.15292 0.75197-0.42747 1.4917-0.89975 2.0966s-1.1578 1.0649-1.9187 1.1641c-0.38046 0.04962-0.77426 0.0081-1.1309-0.13344-0.35662-0.14153-0.67455-0.38436-0.89326-0.6996-0.2457-0.35414-0.36055-0.79039-0.35901-1.2214 0.0015-0.43102 0.11527-0.85703 0.29401-1.2492 0.35749-0.78443 0.96059-1.425 1.5273-2.0745 0.81532-0.93446 1.5802-1.9222 2.5176-2.7342 0.93738-0.81196 2.0839-1.4487 3.3219-1.5208 0.48013-0.027965 0.96532 0.029047 1.4409-0.042472 0.21275-0.031993 0.42291-0.090135 0.6145-0.18802 0.1916-0.097884 0.36437-0.23671 0.48748-0.41315 0.15384-0.22047 0.22488-0.49525 0.20822-0.76357-0.016667-0.26832-0.1192-0.52908-0.28093-0.74383s-0.38123-0.38382-0.62563-0.49581c-0.2444-0.11199-0.51312-0.16768-0.7819-0.17356-0.62906-0.013751-1.2581 0.25486-1.6868 0.71537-0.42876 0.46051-0.65165 1.1048-0.60414 1.7322 0.03792 0.50069 0.24221 0.98384 0.55616 1.3757 0.31395 0.39187 0.73454 0.69353 1.1972 0.88856 0.29138 0.12282 0.60194 0.20483 0.91779 0.2196 0.31586 0.01477 0.63733-0.03933 0.9221-0.17677 0.30719-0.14827 0.56349-0.38902 0.76465-0.6645 0.20115-0.27548 0.35003-0.58562 0.47846-0.90162 0.25686-0.632 0.44258-1.3064 0.84662-1.856 0.29945-0.40739 0.71278-0.73014 1.1806-0.9219 0.46783-0.19176 0.98877-0.25196 1.488-0.17195-0.72838-0.058511-1.4756 0.15854-2.0593 0.59817-0.39892 0.30047-0.72349 0.70529-0.90243 1.1715s-0.20722 0.9939-0.05108 1.4683c0.1948 0.5918 0.66507 1.0694 1.2192 1.3542 0.8229 0.42288 1.8449 0.4345 2.6772 0.03044 0.8323-0.40406 1.4553-1.2143 1.632-2.1224 0.34265-1.2192 0.54804-2.4768 0.61106-3.7416 0.08346-1.6752-0.08361-3.3627-0.49396-4.989-0.97066 2.3635-1.3423 4.9703-1.0709 7.5109 0.09407 0.88055 0.27989 1.7896 0.82202 2.4898 0.27107 0.35011 0.63001 0.63835 1.0459 0.79035 0.41587 0.152 0.8896 0.1607 1.2972-0.012288 0.24512-0.10403 0.46072-0.26954 0.64599-0.46079 0.18527-0.19125 0.34175-0.40834 0.48953-0.62985 0.29557-0.443 0.5672-0.9163 0.97848-1.2546 0.41245-0.33928 0.93506-0.51686 1.3684-0.82903 0.21666-0.15609 0.41239-0.34911 0.53482-0.58642s0.1656-0.52279 0.079405-0.77553c-0.061782-0.18116-0.18717-0.33777-0.34293-0.44901-0.15576-0.11124-0.34074-0.17833-0.53004-0.20661-0.3786-0.056565-0.76375 0.038817-1.124 0.16835-0.30107 0.10826-0.59895 0.24452-0.83431 0.46125-0.11768 0.10836-0.21841 0.23632-0.28785 0.38044-0.06944 0.14411-0.10696 0.30469-0.09941 0.46448 0.0075 0.1589 0.05949 0.31446 0.1421 0.4504 0.08261 0.13594 0.19525 0.25257 0.32348 0.3467 0.25646 0.18827 0.56952 0.28473 0.88297 0.33925 0.40078 0.069708 0.81207 0.076237 1.2077 0.17104 0.1978 0.047404 0.39162 0.11732 0.565 0.22368s0.32601 0.25051 0.42645 0.42738c0.1405 0.24742 0.1712 0.5507 0.1026 0.82683-0.0686 0.27613-0.23235 0.52455-0.44587 0.7126-0.21352 0.18805-0.4751 0.31741-0.7492 0.39372-0.2741 0.07631-0.5608 0.10088-0.84524 0.09398-0.43026-0.01043-0.86691-0.09565-1.2385-0.31276-0.1858-0.10856-0.35358-0.24955-0.48538-0.41966s-0.22704-0.36967-0.26753-0.58102c-0.0558-0.29125-0.0042-0.60184 0.14267-0.85945"/>
  <path d="m30.023 3.9398c0.50783-0.16981 1.047-0.24552 1.5819-0.22216 0.32497 0.014191 0.6471 0.064454 0.96962 0.10673 0.44443 0.058257 0.8913 0.10149 1.3394 0.11098 0.55707 0.011801 1.1152-0.028698 1.6648-0.12079"/>
  <ellipse cx="20.122" cy="2.4384" rx=".41018" ry=".44056"/>
 </g>
</svg>
