<svg width="30.406mm" height="27.451mm" version="1.1" viewBox="0 0 30.406 27.451" xmlns="http://www.w3.org/2000/svg">
 <g transform="matrix(.91805 0 0 .91805 -127.24 -29.626)" display="none">
  <text transform="matrix(.26458 0 0 .26458 -10.807 8.3576)" display="inline" fill="#000000" font-size="24px" style="shape-inside:url(#rect11981-9);white-space:pre" xml:space="preserve"/>
 </g>
 <g transform="matrix(.68025 0 0 .68025 -83.472 1.1605)" display="none" stroke-linecap="round" stroke-linejoin="round">
  <path d="m145.04 1.6999-0.43648 34.183 0.0773-2.961c-0.44719-0.32136-0.88239-0.65942-1.3044-1.0132-0.80169-0.67218-1.5556-1.4013-2.2543-2.18-1.8917-2.1971-3.1941-4.8967-3.7365-7.7448-0.90245-4.7389 0.32094-9.7191 2.7066-13.912 0.72895-1.2812 1.5642-2.502 2.496-3.6441 0.77441-0.94918 1.6155-1.844 2.5149-2.6756 0.15398 0.52902 0.39595 1.0323 0.71297 1.4829 0.28808 0.40949 0.63542 0.77303 0.96107 1.1533 1.3145 1.5351 2.2749 3.3446 3.0454 5.213 1.2712 3.0828 2.0544 6.4112 1.8845 9.7414-0.20958 4.1082-1.8984 8.1024-4.5901 11.213-0.74397 0.85973-1.5623 1.6551-2.4428 2.3743" fill="none" stroke="#000" stroke-width="1.0342"/>
  <path d="m142.04 29.423c-3.34-3.702-4.7752-9.0352-3.7823-14.055 0.61863-3.1273 2.6879-7.7102 4.4194-9.7878l1.4621-1.8392-0.28807 13.939c7e-3 7.421 0.0806 13.638 0.0132 13.638-0.0671 0-0.95531-0.93269-1.8238-1.8953z" fill="#309436" stroke="#309436" stroke-width="1.551"/>
  <path d="m145.22 30.705c0.0171-0.84859 0.10742-7.3583 0.20024-14.466 0.0929-7.1078 0.17389-12.939 0.17997-12.958 0.0132-0.040399 1.0768 1.1411 1.4317 1.5895 2.0028 2.531 3.7816 6.7073 4.4017 10.335 0.21832 1.2772 0.28306 2.1771 0.25637 3.5631-0.026 1.3507-0.0898 1.9511-0.33178 3.1303-0.64619 3.1469-2.28 6.3116-4.5441 8.8019-0.47962 0.52752-1.5212 1.5479-1.58 1.5479-0.0277 0-0.033-0.59958-0.0147-1.5429z" fill="#49c450" stroke="#49c450" stroke-width=".21527"/>
  <path d="m132.7 2.7524c-4.8299 2.7988-8.1996 7.9798-8.7995 13.53-0.33518 3.1009 0.15998 6.2855 1.405 9.1453 1.245 2.8597 3.2352 5.3889 5.7116 7.2851 3.4327 2.6286 7.7218 3.999 12.031 4.3535 4.8244 0.39698 9.83-0.47504 13.969-2.9847 2.8195-1.7095 5.1927-4.1605 6.7649-7.0588 1.5723-2.8983 2.3338-6.2387 2.1217-9.5291-0.24819-3.8507-1.8344-7.5861-4.3532-10.509-3.334-3.8694-8.2144-6.2544-13.268-6.9947-5.3102-0.77784-10.864 0.20686-15.583 2.7631z" display="inline" fill="none" stroke="#000" stroke-width=".48815"/>
 </g>
 <g transform="matrix(.9127 0 0 .9127 -36.832 -21.941)" display="none" fill="none" stroke-linecap="round" stroke-linejoin="round">
  <g stroke="#2155c8" stroke-width=".704">
   <path d="m48.203 32.346c0.05035 0.96725 0.59024 1.8965 1.4056 2.4192 0.76361 0.48958 1.7503 0.61447 2.6118 0.33058"/>
   <path d="m45.365 33.391c-0.21051 1.5677 0.39822 3.2227 1.5743 4.2803 0.71553 0.64345 1.6252 1.0681 2.5779 1.2035 0.95273 0.13538 1.9447-0.0191 2.8111-0.43777"/>
   <path d="m41.655 35.825c-0.02722 2.3523 1.1956 4.6831 3.1465 5.9976 1.0245 0.6903 2.231 1.1078 3.4631 1.1983 1.232 0.09049 2.4866-0.14623 3.601-0.67944"/>
  </g>
  <g stroke="#000" stroke-width=".47033">
   <path d="m54.505 40.936-0.07237 4.4381c0.02076 0.30932-0.09969 0.62534-0.32104 0.84238-0.22136 0.21704-0.5397 0.33124-0.84854 0.30439-0.26852-0.02334-0.52654-0.15167-0.70717-0.35172-0.18063-0.20006-0.28203-0.46979-0.27792-0.7393"/>
   <path d="m54.566 38.714c0.04576 0 0.09123-0.01884 0.12358-0.05119 0.03235-0.03235 0.05119-0.07783 0.05119-0.12358 0-0.04576-0.01884-0.09123-0.05119-0.12358-0.03235-0.03236-0.07783-0.05119-0.12358-0.05119-0.04576 0-0.09123 0.01884-0.12358 0.05119-0.03235 0.03235-0.05119 0.07783-0.05119 0.12358 0 0.04576 0.01884 0.09123 0.05119 0.12358 0.03235 0.03236 0.07783 0.05119 0.12358 0.05119z"/>
   <path d="m59.935 42.362c-0.59176 0.01892-1.184 0.02306-1.776 0.01241-0.3348-6e-3 -0.67122-0.01696-1.0001-0.07987s-0.65228-0.18026-0.91976-0.38172c-0.37185-0.28006-0.61539-0.713-0.70356-1.1701-0.08817-0.45709-0.02775-0.93583 0.13073-1.3735 0.17384-0.48012 0.471-0.92278 0.88306-1.2244s0.94326-0.4522 1.4457-0.36138c0.47871 0.08652 0.90772 0.38873 1.1795 0.79221s0.39038 0.90116 0.36511 1.387c-0.02705 0.51986-0.21654 1.0301-0.53538 1.4416-0.31884 0.4115-0.7656 0.72242-1.2622 0.87844"/>
   <path d="m60.548 39.655c-0.15006 0.35628-0.18865 0.75859-0.10906 1.1369 0.0796 0.37831 0.27703 0.73096 0.55793 0.99657 0.3328 0.31468 0.78174 0.50365 1.2394 0.52171l1.3348-0.0062"/>
   <path d="m63.138 39.71 0.0017 2.4204"/>
   <path d="m64.246 41.125c0.24754 0.16727 0.5573 0.24002 0.85342 0.20043 0.29612-0.03959 0.5759-0.19116 0.7708-0.41758 0.08568-0.09953 0.1558-0.21399 0.19408-0.33961 0.03828-0.12563 0.04352-0.26289 0.0035-0.38797-0.0554-0.17309-0.1954-0.31229-0.36081-0.38758-0.16541-0.07529-0.35385-0.09066-0.53395-0.06627-0.25988 0.0352-0.50744 0.15217-0.70262 0.32732-0.19519 0.17515-0.3377 0.40739-0.40971 0.65956-0.08169 0.28604-0.07184 0.59939 0.03893 0.87548 0.11077 0.27609 0.32387 0.51197 0.59261 0.63953 0.29962 0.14222 0.64426 0.146 0.9758 0.13732 0.24557-0.0064 0.491-0.01819 0.73605-0.03529"/>
   <path d="m69.189 39.818c-0.31273-0.14961-0.66405-0.21767-1.01-0.19567-0.34589 0.022-0.68567 0.13397-0.97687 0.32191l-0.03454 2.4699"/>
   <path d="m69.814 39.612 0.94716 1.3292"/>
   <path d="m71.519 39.601-0.79314 1.4352-0.0029 1.498"/>
  </g>
 </g>
 <g transform="matrix(1.0539 0 0 .97322 -93.822 -33.99)" display="none" stroke-linecap="round" stroke-linejoin="round">
  <g fill="none" stroke-width="1.0931">
   <path d="m92.932 43.67 11.258-7.6632 9.9907 7.8988-0.0621 11.768-10.728 6.5193-10.477-6.7526 0.01848-11.77z" stroke="#000"/>
   <path d="m94.547 50.988-0.0174-2.7769 1.9173-1.1756 1.753 1.1776 0.0329 2.8047" stroke="#000"/>
   <path d="m101.76 46.986-2.0104 1.2279v2.6733l1.86 0.97935 1.9136-0.88813-6e-3 -2.7267-1.7571-1.2658z" stroke="#fff"/>
   <g stroke="#000">
    <path d="m107.95 48.189-1.311-0.79168-1.5651 0.97189 0.036 2.6092 1.6003 0.90535"/>
    <path d="m108.32 43.065-0.0315 7.9857-1.3866 0.83185"/>
    <path d="m112.73 48.51-1.3674-1.4155-1.6627 1.3767-0.0419 2.3241 1.5078 1.0855"/>
   </g>
  </g>
  <g fill="#70ba4f" stroke="#70ba4f" stroke-width=".27561">
   <path d="m98.437 58.304-4.9664-3.2002 5.8e-5 -2.0677c3.2e-5 -1.1372 0.01818-3.6455 0.0403-5.5739l0.04024-3.5063 5.2779-3.5925c2.9028-1.9759 5.3147-3.5838 5.3596-3.5731 0.045 0.01069 2.1762 1.6738 4.736 3.6958l4.6543 3.6764-5e-3 4.4664c-3e-3 2.4565-0.0221 4.9783-0.0428 5.604l-0.0376 1.1376-4.8614 2.9544c-2.6738 1.6249-4.944 3.005-5.045 3.0669l-0.18359 0.11251-4.9664-3.2002zm4.3309-6.3346c0.58488-0.26832 1.1181-0.54249 1.185-0.60925 0.11414-0.114 0.12264-0.21553 0.13964-1.6675 0.0138-1.1787-5.3e-4 -1.5818-0.0608-1.6964-0.11048-0.21046-2.0769-1.6157-2.2609-1.6157-0.1571 0-2.3728 1.3319-2.5048 1.5056-0.0606 0.07976-0.08 0.47548-0.0814 1.6627-2e-3 1.396 9e-3 1.5714 0.10441 1.6869 0.13 0.15753 2.1244 1.2184 2.294 1.2202 0.0669 7.94e-4 0.60008-0.21826 1.185-0.48658zm5.1804-0.02299c0.42612-0.25816 0.80667-0.52897 0.84565-0.60182 0.0512-0.09565 0.0788-1.292 0.0995-4.3068l0.0286-4.1744-0.18596-0.18596c-0.25375-0.25375-0.55907-0.2569-0.80765-0.0083l-0.17762 0.17763v2.2531c0 1.2392-0.0132 2.2531-0.0293 2.2531s-0.21202-0.11183-0.43532-0.2485c-0.63767-0.3903-0.64879-0.38882-1.6318 0.21669-0.46791 0.28821-0.91633 0.58886-0.9965 0.66812l-0.14575 0.1441 0.0111 1.5088c0.01 1.3327 0.0235 1.5259 0.11792 1.6553 0.0926 0.127 0.66417 0.47934 1.6513 1.018 0.46003 0.25102 0.73303 0.1902 1.6559-0.36889zm3.6462 0.32469c0.33138-0.40923 0.20144-0.66113-0.66006-1.2796l-0.69215-0.49693v-1.7198l1.0618-0.87442 0.57918 0.57701c0.55071 0.54864 0.59196 0.57701 0.83912 0.57701 0.35304 0 0.55824-0.20015 0.55824-0.5445 0-0.23156-0.0455-0.29461-0.76518-1.0611-0.77885-0.8295-0.99894-0.98979-1.2667-0.92258-0.12801 0.03213-0.6075 0.40408-1.8274 1.4175-0.20786 0.17269-0.24087 0.23726-0.27953 0.5469-0.0241 0.1931-0.0461 0.83038-0.049 1.4162-4e-3 0.86094 0.0126 1.0904 0.0873 1.197 0.0789 0.1126 0.86917 0.71103 1.6091 1.2184 0.26276 0.18019 0.63728 0.15644 0.80531-0.05107zm-13.086-0.75287c0.30993-0.16027 0.33234-0.31573 0.28603-1.9837-0.0232-0.8335-0.0584-1.5581-0.0784-1.6102-0.02-0.05209-0.49065-0.39912-1.0459-0.77117-0.80406-0.53877-1.0528-0.67658-1.2222-0.67702-0.28954-7.94e-4 -2.3331 1.2487-2.4317 1.4868-0.04302 0.10385-0.05943 0.6993-0.04753 1.7241l0.01818 1.5655 0.1705 0.14656c0.23924 0.20566 0.58004 0.1998 0.79348-0.01363l0.1602-0.1602 2.3e-4 -1.3438 2.2e-4 -1.3438 1.3219-0.81039 1.1506 0.76941 0.0392 0.41548c0.0216 0.22851 0.0394 0.84008 0.0397 1.359 2.7e-4 0.76779 0.0186 0.96953 0.0981 1.083 0.17242 0.24617 0.46461 0.31025 0.74754 0.16394z"/>
   <path d="m100.93 50.86-0.59147-0.31692-8e-4 -1.0027-7.9e-4 -1.0027 0.66905-0.41018c0.36798-0.2256 0.69005-0.41018 0.7157-0.41018 0.0256 0 0.30556 0.1863 0.62202 0.414l0.57538 0.414 0.0166 1.0307 0.0166 1.0307-0.63256 0.28716c-0.34792 0.15794-0.66984 0.28622-0.71539 0.28506-0.0456-0.0011-0.34898-0.14472-0.6743-0.31903z"/>
   <path d="m106.23 50.944-0.51651-0.29443-0.0141-0.99512-0.0141-0.99512 0.48187-0.2892 0.48188-0.2892 0.53492 0.32362c0.62669 0.37915 0.5999 0.30174 0.53453 1.5444l-0.0423 0.80345-0.42457 0.24478c-0.23352 0.13463-0.44268 0.244-0.46481 0.24304-0.0221-0.0011-0.27267-0.13424-0.55676-0.29618z"/>
  </g>
 </g>
 <g transform="matrix(.98741 0 0 .98741 -41.843 -58.416)" display="none" stroke-linecap="round" stroke-linejoin="round">
  <g fill="none" stroke="#000" stroke-width=".29484">
   <path d="m50.257 61.498c-2.9173 1.6904-4.9526 4.8198-5.3149 8.1719-0.20245 1.873 0.09663 3.7965 0.84859 5.5237 0.75196 1.7273 1.9541 3.2549 3.4498 4.4002 2.0733 1.5877 4.664 2.4154 7.2666 2.6295 2.9139 0.23978 5.9373-0.28692 8.4375-1.8028 1.703-1.0325 3.1364-2.513 4.086-4.2635 0.94965-1.7506 1.4096-3.7681 1.2815-5.7556-0.14991-2.3258-1.108-4.582-2.6293-6.3476-2.0137-2.3371-4.9615-3.7777-8.0139-4.2248-3.2074-0.46981-6.5616 0.12495-9.4119 1.6689z"/>
   <path d="m53.156 81.513c0.01351-0.53129 0.06841-1.0615 0.16402-1.5843 0.09471-0.51784 0.22936-1.0284 0.40237-1.5256"/>
   <path d="m53.722 78.352c-0.17898-0.22602-0.40282-0.41637-0.65465-0.55672-0.46092-0.25688-0.99479-0.33942-1.5089-0.45813-0.57291-0.13228-1.1577-0.32811-1.5732-0.74421-0.35141-0.35197-0.54778-0.8278-0.85055-1.2224-0.31134-0.40577-0.73208-0.71938-1.1891-0.94901-0.2699-0.13562-0.55373-0.2435-0.84557-0.32141"/>
   <path d="m47.163 74.071c0.30392-0.23584 0.69797-0.3524 1.0813-0.31983 0.41157 0.03497 0.79566 0.23464 1.1139 0.49802 0.37097 0.30706 0.66269 0.69892 1.0193 1.0226 0.27445 0.24911 0.58639 0.45645 0.92074 0.61641 0.80182 0.38362 1.7347 0.48643 2.6008 0.28665 0.0056-0.43713 0.15331-0.87131 0.4155-1.2211 0.27171-0.36251 0.66506-0.63215 1.1012-0.75485"/>
   <path d="m59.193 74.521c0.45284 0.10213 0.86333 0.38119 1.1249 0.76471 0.1812 0.26571 0.29069 0.57526 0.35411 0.89056 0.06341 0.3153 0.08235 0.63773 0.09464 0.9591 0.03417 0.89332 0.01838 1.7905 0.12727 2.6778 0.08414 0.68562 0.2427 1.3621 0.47201 2.0137"/>
   <path d="m55.391 74.214c-1.1267-0.11996-2.2113-0.60708-3.0495-1.3696-0.72068-0.65561-1.2603-1.5168-1.4951-2.4623-0.23059-0.92851-0.16163-1.9307 0.20476-2.8145 0.39306-0.94812 1.1276-1.7504 2.0374-2.2255-0.02174-0.42695 0.01487-0.85683 0.10849-1.274 0.10306-0.45919 0.27526-0.9028 0.50902-1.3112"/>
   <path d="m53.698 62.76c0.40176 0.19057 0.77282 0.4457 1.0946 0.75261 0.27863 0.26576 0.52032 0.57021 0.71594 0.90186 0.8104-0.25764 1.671-0.35633 2.5187-0.28883 0.8019 0.06385 1.5917 0.2762 2.3176 0.62307 0.34119-0.36869 0.73638-0.68733 1.169-0.94259 0.33602-0.19825 0.69452-0.35834 1.0664-0.47622"/>
   <path d="m62.674 63.355c0.04234 0.44832 0.03898 0.90095-0.01 1.3486-0.04557 0.4164-0.13059 0.82847-0.25357 1.2289 0.52265 0.4639 0.94766 1.0373 1.2395 1.6722 0.65696 1.4292 0.59296 3.1766-0.19802 4.5361-0.42774 0.73523-1.055 1.3531-1.7966 1.7697s-1.5955 0.63096-2.446 0.61385"/>
  </g>
  <path d="m61.371 81.208c-0.27131-0.92368-0.33257-1.4526-0.43106-3.722-0.06979-1.6081-0.20087-2.0768-0.72236-2.5829l-0.24672-0.23945 0.40464-0.08178c1.5532-0.31391 2.9649-1.51 3.5413-3.0004 0.57804-1.4948 0.44049-3.1962-0.36877-4.5611-0.13327-0.22478-0.39406-0.5726-0.57953-0.77292l-0.33722-0.36424 0.09942-0.4728c0.11641-0.55358 0.18857-1.6634 0.12885-1.9817-0.03074-0.16383-0.07882-0.23126-0.18366-0.25758-0.31028-0.07787-1.6732 0.64853-2.1522 1.1471l-0.20309 0.21137-0.34382-0.13863c-0.79852-0.32197-1.3711-0.42135-2.4403-0.42354-0.76529-0.0016-1.1153 0.02437-1.4785 0.10952-0.26171 0.06137-0.48151 0.10239-0.48845 0.09115-0.31039-0.50271-0.84943-1.0198-1.4233-1.3654-0.48694-0.29322-0.53005-0.28006-0.7734 0.23594-0.26881 0.56999-0.39101 1.0448-0.43553 1.6922l-0.03593 0.52241-0.2189 0.11564c-0.6056 0.31993-1.521 1.4195-1.822 2.1885-0.54715 1.3981-0.35342 3.1238 0.49596 4.4181 0.35547 0.54167 1.1521 1.2973 1.7357 1.6462 0.27438 0.16407 0.75576 0.38434 1.0698 0.48949l0.57088 0.19117-0.21082 0.16822c-0.30114 0.24028-0.61155 0.73916-0.71927 1.156-0.05097 0.19723-0.10895 0.37487-0.12883 0.39476-0.01987 0.01987-0.25217 0.04596-0.5162 0.05795-0.84533 0.03839-1.8053-0.26575-2.4256-0.76849-0.15123-0.12257-0.52107-0.47232-0.82187-0.77723-0.71613-0.72591-1.119-0.93669-1.7904-0.93669-0.37602 0-0.5237 0.0295-0.77527 0.15486-0.52561 0.26192-0.56296 0.44002-0.12009 0.57262 0.44234 0.13244 1.0375 0.46555 1.377 0.77072 0.18016 0.16194 0.49708 0.55421 0.70426 0.87172s0.48264 0.67831 0.61214 0.80179c0.33369 0.31818 0.89613 0.56062 1.8691 0.80568 0.95838 0.24138 1.2674 0.37289 1.5421 0.65635l0.19293 0.19906-0.11753 0.37763c-0.13895 0.44644-0.34162 1.5186-0.39636 2.0968-0.02135 0.2256-0.0487 0.41018-0.06076 0.41018-0.10529 0-1.0416-0.38066-1.5856-0.64463-3.463-1.6804-5.7688-4.871-6.2262-8.6155-0.10229-0.83732-0.03937-2.5048 0.12292-3.2579 0.20625-0.95698 0.48741-1.7433 0.95555-2.6725 1.0903-2.1641 2.6335-3.7118 4.7292-4.743 5.2568-2.5867 11.629-1.8235 15.712 1.8819 1.5145 1.3742 2.6772 3.3253 3.1811 5.3384 0.40163 1.6045 0.41997 3.0724 0.05856 4.6872-0.72896 3.2569-2.9026 5.9664-6.0016 7.481-0.6916 0.33801-2.0685 0.84603-2.2984 0.84801-0.07595 5.29e-4 -0.13607-0.10908-0.22425-0.40928z" stroke="#000" stroke-width=".27561"/>
  <text x="49.392788" y="86.485832" fill="#000000" font-size="5.0019px" stroke="#000000" stroke-width=".30383" xml:space="preserve"><tspan x="49.392788" y="86.485832" stroke-width=".30382">GitHub</tspan></text>
 </g>
 <g transform="matrix(1.4725 0 0 1.4725 -9.5899 -34.423)" display="none" stroke-linecap="round" stroke-linejoin="round">
  <g fill="none" stroke="#000" stroke-width="1.2">
   <path d="m23.027 38.967 0.78625-11.01-14.084 0.06434 0.83744 10.807 6.3947 2.2466 6.0652-2.1077z"/>
   <path d="m16.052 30.299-0.0091 7.2466-0.61764 0.44675-2.9039-1.2191-0.04223-0.95062"/>
   <path d="m20.642 30.222-2.7593 0.0189-7.02e-4 3.5311 3.224 0.0602-0.0755 3.0989-3.2023 1.2217"/>
  </g>
  <path d="m14.025 39.385-2.8359-0.99951-0.03194-0.14647c-0.01757-0.08056-0.18682-2.1864-0.37612-4.6797-0.1893-2.4933-0.35517-4.6219-0.3686-4.7303l-0.02441-0.19712 6.3719-0.02619c3.5045-0.01439 6.3752-0.02238 6.3792-0.01773 0.01434 0.01659-0.70205 9.9154-0.71847 9.9273-0.06534 0.0474-5.4113 1.8754-5.4766 1.8727-0.04567-0.0019-1.3592-0.45321-2.919-1.0029zm5.6541-1.2691c0.95302-0.36369 1.7276-0.68354 1.7842-0.73679 0.05509-0.05176 0.11926-0.1541 0.14258-0.22744 0.02332-0.07333 0.06223-0.87694 0.08646-1.7858 0.04089-1.534 0.03871-1.6634-0.03042-1.8041-0.14731-0.29995-0.24287-0.3288-1.1946-0.36068-0.46681-0.01564-1.097-0.02842-1.4004-0.02842h-0.55168v-2.3203h1.1286c1.0164 0 1.1434-0.0079 1.2769-0.07955 0.20913-0.11216 0.31065-0.26782 0.33137-0.50807 0.02117-0.24554-0.07912-0.43867-0.29804-0.57389-0.13463-0.08316-0.20072-0.08605-1.7104-0.0748-1.7408 0.01296-1.71 8e-3 -1.8905 0.30407-0.07975 0.13079-0.08373 0.23016-0.08373 2.0924 0 1.8634 0.0039 1.9615 0.08388 2.0926 0.16668 0.27336 0.22081 0.2829 1.7312 0.30506l1.3643 0.02-3.97e-4 0.82142c-2.14e-4 0.45178-0.01209 0.91889-0.02641 1.038l-0.02603 0.21661-1.455 0.55337c-1.6458 0.62594-1.6736 0.64264-1.7053 1.025-0.02307 0.27817 0.06082 0.46773 0.26102 0.5898 0.2606 0.1589 0.38778 0.12635 2.1823-0.55848zm-3.8494 0.35371c0.34646-0.22439 0.6762-0.49912 0.75585-0.62974 0.07867-0.12902 0.08172-0.27474 0.08188-3.9088 1.71e-4 -4.1938 0.01553-3.9709-0.2863-4.1574-0.2026-0.12522-0.56563-0.09984-0.72917 0.05096-0.23781 0.21929-0.23046 0.09477-0.23046 3.9052 0 3.2032-0.0063 3.5248-0.06879 3.5248-0.11471 0-2.1402-0.86288-2.1978-0.9363-0.03054-0.03889-0.05374-0.19-0.05378-0.35023-1.16e-4 -0.49693-0.21315-0.75618-0.61825-0.75236-0.16495 0.0016-0.26293 0.02908-0.36683 0.10307-0.23688 0.16868-0.27073 0.31266-0.23658 1.0065 0.03087 0.62725 0.06438 0.75458 0.24011 0.91246 0.08102 0.07279 2.4892 1.1145 3.0871 1.3354 0.19383 0.07161 0.40743 0.03611 0.62305-0.10354z" fill="#f7db4e" stroke="#f7db4e" stroke-width=".19488"/>
  <text x="8.4107018" y="26.347609" fill="#000000" font-size="3.354px" stroke="#000000" stroke-width=".20373" xml:space="preserve"><tspan x="8.4107018" y="26.347609" stroke-width=".20373">Javascript</tspan></text>
 </g>
 <g transform="matrix(1.0472 0 0 1.0472 -3.0073 -53.159)" display="none" stroke-linecap="round" stroke-linejoin="round">
  <g fill="none" stroke-width=".33338">
   <path d="m16.506 51.504c-3.2627 0.39064-6.2705 2.3235-8.1388 5.0267-0.98128 1.4199-1.6694 3.058-1.877 4.7715-0.23015 1.8996 0.13984 3.8557 0.97126 5.5792 0.36676 0.76026 0.82331 1.4803 1.3863 2.1092 1.0236 1.1435 2.383 1.9617 3.8387 2.448 1.4557 0.4863 3.0063 0.65045 4.5403 0.60411 2.3882-0.07214 4.8071-0.67459 6.7659-2.0429 1.426-0.99613 2.5741-2.3807 3.3106-3.9566 0.73644-1.5759 1.0619-3.3386 0.96047-5.0751-0.07657-1.311-0.39495-2.6104-0.96104-3.7954-0.89257-1.8684-2.4087-3.4323-4.2486-4.3823-1.9766-1.0982-4.3029-1.5552-6.5481-1.2864z" stroke="#000"/>
   <g stroke="#fa702a">
    <path d="m23.491 55.631c0.42552 0.30857 0.68841 0.82965 0.68375 1.3553-0.0038 0.43151-0.18439 0.85885-0.49114 1.1624-0.36121 0.42206-0.915 0.67237-1.4705 0.66464-0.55548-0.0077-1.1021-0.27336-1.4514-0.70532-0.25375-0.31378-0.4037-0.71048-0.41902-1.1137-0.01532-0.40326 0.10441-0.81078 0.337-1.1406 0.3092-0.4384 0.81831-0.72965 1.3529-0.77398 0.53463-0.04433 1.0848 0.1591 1.4619 0.5406l-1.6986 1.516 1.4109 1.1675"/>
    <path d="m23.496 56.73-0.28531 0.71328"/>
    <path d="m19.758 58.641c-0.0496-0.07123-0.1018-0.14064-0.15647-0.20805-0.25225-0.31101-0.55749-0.57894-0.89858-0.78874-1.4956 1.0397-2.9132 2.1916-4.237 3.4429-0.51624 0.48796-1.0182 0.991-1.5051 1.5083l1.819-0.08523-0.61425-1.0551"/>
    <path d="m14.871 62.431c0.98666-0.86065 2.0009-1.6896 3.0408-2.4852 0.60869-0.46572 1.2261-0.92 1.8519-1.3625"/>
    <path d="m15.632 63.509-0.8187-0.9325-0.38465 1.7504 1.3498-0.69482"/>
    <path d="m15.771 63.639 4.8917-3.8466-0.89564-1.2473"/>
    <path d="m20.678 59.845c-0.38587 1.0113-0.91395 1.9683-1.5639 2.834-0.69456 0.92512-1.5282 1.7456-2.4643 2.4254l-0.98454-1.3757"/>
    <path d="m16.627 65.077c-0.8246 0.48614-1.684 0.91318-2.5695 1.2768-1.0467 0.4298-2.1299 0.77086-3.234 1.0183l-0.16801 1.4478-1.4668-1.6528"/>
    <path d="m14.827 62.568-5.656 4.5648"/>
   </g>
  </g>
  <path d="m15.869 71.844c-3.2046-0.23113-5.716-1.4284-7.2703-3.466-0.81256-1.0652-1.4485-2.4747-1.7685-3.9196-0.28303-1.278-0.2663-2.9158 0.042733-4.1842 0.35669-1.464 1.1396-3.0287 2.1519-4.3007 0.39743-0.49938 1.3211-1.4258 1.8168-1.8223 1.6911-1.3526 3.8159-2.2573 5.8098-2.4736 0.60505-0.06565 1.7795-0.05551 2.3985 0.02072 2.7076 0.33342 5.3001 1.7237 6.887 3.6934 1.1648 1.4458 1.8789 3.1801 2.0952 5.0889 0.07594 0.67022 0.03021 2.2136-0.08411 2.8393-0.1952 1.0683-0.47426 1.9299-0.91462 2.8239-0.27449 0.55722-0.77857 1.3547-1.1483 1.8168-0.31019 0.3876-1.0791 1.1604-1.4653 1.4726-1.5458 1.2499-3.6048 2.0586-5.9297 2.3289-0.56874 0.06612-2.1545 0.11585-2.6211 0.08219zm-5.0436-2.9655c0.01561-0.06219 0.05948-0.38404 0.0975-0.71524 0.0505-0.43998 0.08648-0.61104 0.13357-0.6351 0.03545-0.0181 0.30615-0.09574 0.60156-0.17251 1.546-0.40178 3.0209-0.99861 4.7686-1.9297 1.2754-0.67948 2.8815-2.4263 3.8012-4.1344 0.27936-0.51883 0.62465-1.3227 0.62512-1.4554 3.97e-4 -0.1108-0.8949-1.4126-1.0026-1.4579-0.02811-0.01183-0.14748-0.12572-0.26525-0.25313-0.29085-0.31463-0.73941-0.64922-0.87036-0.64922-0.11187 0-0.34575 0.15491-1.1914 0.78913-1.2885 0.9663-2.5239 2.0279-3.7278 3.2033-0.92962 0.90761-1.0394 1.0385-1.0007 1.1929l0.02836 0.11301 1.5028-0.05164-0.48724 0.3952c-0.26798 0.21736-1.4677 1.1863-2.666 2.1532-1.706 1.3765-2.1788 1.7789-2.1788 1.8543 0 0.11042 0.049911 0.17286 0.91803 1.1485 0.54541 0.61298 0.65653 0.71767 0.76179 0.71767 0.09725 0 0.12921-0.02384 0.15161-0.11307zm12.056-9.9837c0.49888-0.15409 1.0461-0.62311 1.2794-1.0966 0.3611-0.73276 0.21218-1.5846-0.37871-2.1664-0.51573-0.50779-0.8907-0.68951-1.492-0.72307-0.64502-0.036-1.1272 0.15501-1.5741 0.62354-0.38374 0.40231-0.55026 0.82836-0.55026 1.4078 0 0.91622 0.62011 1.7319 1.5039 1.9782 0.30932 0.08621 0.8932 0.07487 1.2118-0.02352z" fill="#fa702a" stroke="#fa702a" stroke-width=".19488"/>
  <text x="7.7322345" y="75.723419" fill="#000000" font-size="4.5381px" stroke="#000000" stroke-width=".27565" xml:space="preserve"><tspan x="7.7322345" y="75.723419" stroke-width=".27565">postman</tspan></text>
 </g>
 <g transform="matrix(.93297 0 0 .93297 -86.409 -2.1451)" display="none" fill="none" stroke="#50e4ef" stroke-linecap="round" stroke-linejoin="round" stroke-width="1.1399">
  <path d="m116.24 3.7528c-0.42616-0.24265-0.91893-0.35954-1.4093-0.36247-0.49039-0.00293-0.97832 0.10574-1.4327 0.29017-0.90879 0.36887-1.6698 1.0278-2.3472 1.7371-2.0734 2.1711-3.4939 4.8674-4.9224 7.5078-2.1075 3.8956-4.3097 7.7972-5.4909 12.066-0.25921 0.93677-0.46931 1.9111-0.34719 2.8754 0.0611 0.48213 0.20682 0.95679 0.45675 1.3736s0.60679 0.77401 1.0396 0.9951c0.47193 0.2411 1.0211 0.31335 1.5467 0.24493 0.52551-0.06842 1.028-0.27282 1.477-0.55429 0.89804-0.56295 1.5715-1.4133 2.2245-2.2482 2.156-2.7562 4.296-5.5344 6.1406-8.508 1.9294-3.1102 3.539-6.4563 4.3599-10.023 0.22284-0.96828 0.38732-1.9712 0.2347-2.953-0.0763-0.4909-0.23303-0.97211-0.48798-1.3985-0.25494-0.42639-0.61033-0.79668-1.042-1.0425z"/>
  <path d="m100.86 5.5106c-0.605 0.56488-0.9173 1.3952-0.97307 2.221-0.05577 0.82584 0.12502 1.6515 0.38604 2.437 0.9275 2.7911 2.8302 5.1303 4.6005 7.479 2.6649 3.5356 5.1412 7.273 8.4513 10.213 0.72704 0.6458 1.5119 1.2615 2.4332 1.5726 0.46066 0.15558 0.95165 0.23138 1.4359 0.18813 0.4843-0.04324 0.96155-0.20872 1.3496-0.50173 0.42297-0.3194 0.72805-0.78174 0.89644-1.2843 0.16838-0.50256 0.20454-1.0438 0.14789-1.5708-0.11328-1.054-0.58376-2.0317-1.0513-2.983-1.5433-3.1401-3.1358-6.2611-4.9674-9.2422-1.892-3.0794-4.1015-6.0677-7.1086-8.0727-0.8426-0.56184-1.7622-1.0483-2.7628-1.2049-0.50028-0.078282-1.0165-0.071642-1.5085 0.048117-0.49201 0.11976-0.95911 0.35497-1.3292 0.70054z"/>
  <path d="m124.14 15.84c-8e-3 -0.49033-0.15877-0.97391-0.40608-1.3974s-0.58939-0.78797-0.97959-1.085c-0.78039-0.5941-1.7351-0.9132-2.6906-1.1347-2.9245-0.67812-5.9683-0.52677-8.9682-0.41083-4.4258 0.17105-8.9051 0.26378-13.18 1.4221-0.93815 0.25418-1.8836 0.56976-2.6511 1.1661-0.38377 0.29817-0.71796 0.66541-0.94928 1.0928s-0.3569 0.91646-0.32668 1.4015c0.03296 0.52892 0.25058 1.0383 0.57718 1.4557 0.3266 0.41735 0.75846 0.74558 1.2294 0.98856 0.94192 0.48597 2.0168 0.63226 3.0678 0.76889 3.4701 0.45107 6.9509 0.8772 10.449 0.94958 3.6593 0.0757 7.3586-0.24385 10.846-1.3546 0.94673-0.30153 1.8935-0.67092 2.6606-1.3024 0.38354-0.31575 0.71778-0.69577 0.9548-1.1324 0.23703-0.4366 0.37461-0.93106 0.36619-1.4278z"/>
  <path d="m110.83 16.221c-0.0339-0.2716-0.1832-0.52689-0.40331-0.68958-0.22011-0.16269-0.50796-0.23053-0.77756-0.18324-0.20713 0.03633-0.40219 0.13911-0.54875 0.28992-0.14656 0.1508-0.2438 0.34894-0.27272 0.55724-0.0383 0.2758 0.0464 0.56638 0.22688 0.77841s0.45379 0.34206 0.73216 0.34833c0.27837 0.0063 0.55726-0.11134 0.7471-0.31504 0.18983-0.2037 0.28751-0.49018 0.26167-0.76741l0.0346-0.01862z"/>
 </g>
 <g transform="matrix(.98789 0 0 .98789 -53.502 -2.1403)" display="none">
  <path d="m55.005 16.712-0.01462-1.2904c1.3095 0.0046 2.6123-0.53974 3.5292-1.4747 0.60722-0.61916 1.0406-1.3886 1.3896-2.1825 0.42919-0.97622 0.74137-2.0038 0.92775-3.0538-0.02453-0.46828 0.19058-0.94285 0.5589-1.2331 0.32227-0.25393 0.75395-0.36379 1.1584-0.2948l14.724-0.069139c0.50867 0.064115 0.98815 0.33536 1.3051 0.73832 0.23908 0.30393 0.38595 0.67944 0.4165 1.0649 0.02329 1.231 0.37168 2.4543 1.0004 3.5128 0.54746 0.92173 1.3091 1.7204 2.2237 2.2796 0.55724 0.3407 1.169 0.59201 1.8048 0.7414l-0.0053 1.125" fill="none" stroke="#000" stroke-linecap="round" stroke-linejoin="round" stroke-width=".85062"/>
  <path d="m55.112 16.723c1.2783-0.10982 2.5956 0.38759 3.4823 1.3149 0.60806 0.63592 1.0067 1.4418 1.3359 2.2577 0.39859 0.98789 0.70946 2.0112 0.92775 3.0538-0.02453 0.46828 0.19058 0.94286 0.5589 1.2331 0.32227 0.25393 0.75395 0.36379 1.1584 0.2948l14.724 0.06915c0.50867-0.06412 0.98815-0.33536 1.3051-0.73832 0.23908-0.30393 0.38595-0.67944 0.4165-1.0649 0.05713-1.2271 0.40249-2.4398 1.0004-3.5128 0.50127-0.89964 1.1877-1.7086 2.0519-2.2689 0.59607-0.38648 1.2712-0.65043 1.9714-0.77072" fill="none" stroke="#000" stroke-linecap="round" stroke-linejoin="round" stroke-width=".85062"/>
  <text transform="matrix(.26458 0 0 .26458 -1.8149 1.2686)" display="inline" fill="#ffffff" font-size="64px" style="shape-inside:url(#rect10258-7);white-space:pre" xml:space="preserve"/>
  <g fill="#7262de" stroke="#7262de" stroke-linecap="round" stroke-linejoin="round" stroke-width=".27561">
   <path d="m62.025 24.374c-0.37872-0.13618-0.68961-0.51433-0.69005-0.83932-7.94e-4 -0.4911-0.6022-2.5118-1.0898-3.6607-0.69453-1.6367-1.4367-2.5064-2.6476-3.1026-0.6218-0.30613-1.0821-0.4383-1.7167-0.49294l-0.44056-0.03793v-0.20377c0-0.18168 0.01812-0.20381 0.16711-0.20419 0.3724-9.53e-4 1.2316-0.26072 1.8078-0.54658 1.4344-0.71162 2.4312-1.9805 3.222-4.1017 0.26388-0.70782 0.63669-2.1355 0.63669-2.4382 0-0.43825 0.33073-0.93871 0.69365-1.0497 0.10998-0.033621 3.3184-0.074177 7.762-0.098114l7.5745-0.040803 0.29478 0.13021c0.61788 0.27292 0.89237 0.72441 0.96203 1.5824 0.15504 1.9096 0.90124 3.5616 2.1827 4.8324 0.7689 0.7625 1.7233 1.3605 2.5735 1.6124 0.24379 0.07223 0.25826 0.08918 0.25826 0.30237 0 0.20303-0.01868 0.22959-0.18485 0.26282-0.38301 0.0766-1.1372 0.42295-1.6189 0.74345-1.5855 1.0549-2.7871 3.058-3.093 5.1561-0.04902 0.33613-0.11422 0.78719-0.1449 1.0023-0.06568 0.4606-0.27067 0.79039-0.66231 1.0655l-0.26192 0.184-7.7032 0.0033c-5.2531 0.0022-7.7599-0.01709-7.8813-0.06077zm9.767-2.2397c1.9558-0.47418 3.0886-1.8053 3.0927-3.6344 0.0013-0.61107-0.08389-1.0332-0.30361-1.5027-0.41181-0.88002-1.0284-1.3645-2.214-1.7398-0.10156-0.03214-0.08032-0.06267 0.14937-0.21473 0.42537-0.2816 0.89773-0.78092 1.068-1.1289 0.48662-0.99462 0.25634-2.4623-0.48705-3.1041-0.33252-0.28708-0.86068-0.54826-1.4236-0.70396-0.43542-0.12044-0.64222-0.12998-3.3053-0.1525l-2.8409-0.024021v12.353l2.932-0.02564c2.4132-0.0211 3.0028-0.04281 3.3323-0.12269z"/>
   <path d="m67.229 18.567v-2.2597l2.0205 0.02813c1.2296 0.01712 2.1226 0.05531 2.2813 0.09757 0.73943 0.19689 1.3223 0.6682 1.4742 1.1921 0.05285 0.18223 0.08725 0.55875 0.08606 0.94168-0.0016 0.52023-0.02609 0.69101-0.13249 0.92485-0.15671 0.3444-0.58923 0.78002-0.94413 0.9509-0.61494 0.29609-0.88082 0.32901-2.8864 0.35738l-1.899 0.02686z"/>
   <path d="m67.229 13.134v-1.7369l1.5344 4.5e-4c0.8439 2.52e-4 1.7083 0.02869 1.921 0.06319 0.48659 0.07896 0.92711 0.29962 1.1305 0.56628 0.48109 0.63074 0.2801 1.8942-0.3804 2.3913-0.48038 0.36148-0.71195 0.40034-2.5495 0.42787l-1.6559 0.02481z"/>
  </g>
 </g>
 <g transform="matrix(1.3177 0 0 1.3177 -35.354 -3.0486)" stroke-linecap="round" stroke-linejoin="round">
  <path d="m31.96 4.8434c-2.4933 1.4448-4.2329 4.1194-4.5425 6.9844-0.17303 1.6008 0.08258 3.2448 0.72527 4.721 0.64268 1.4763 1.6701 2.7819 2.9485 3.7608 1.772 1.357 3.9862 2.0644 6.2106 2.2474 2.4905 0.20493 5.0745-0.24523 7.2113-1.5408 1.4555-0.88249 2.6806-2.1478 3.4922-3.6439 0.81165-1.4962 1.2048-3.2206 1.0953-4.9192-0.12812-1.9878-0.94698-3.9162-2.2472-5.4252-1.7211-1.9975-4.2405-3.2287-6.8493-3.6108-2.7413-0.40154-5.6081 0.10679-8.0442 1.4264z" display="none" fill="none" stroke="#000" stroke-width=".25199"/>
  <path transform="matrix(.20078 0 0 .20078 26.829 2.3135)" d="m52.135 100.11c-7.6728-0.80863-14.291-2.4812-20.325-5.1364-14.213-6.2549-24.456-18.801-27.442-33.614-1.9676-9.7611-0.81306-19.219 3.4245-28.053 2.2812-4.7556 4.2861-7.7662 7.7291-11.606 5.6316-6.281 13.295-10.747 23.463-13.674 6.1999-1.7845 12.266-2.5224 19.199-2.3355 5.2222 0.14081 8.4233 0.57115 13.244 1.7804 4.4081 1.1059 7.1944 2.1354 11.484 4.2431 6.0081 2.9524 9.9611 5.8202 14.492 10.514 15.377 15.927 17.095 39.276 4.2259 57.409-1.7125 2.413-5.6823 6.6333-8.2686 8.7905-6.9257 5.7765-16.17 9.7162-26.457 11.275-2.2827 0.34599-12.639 0.63118-14.769 0.4067z" fill="#eb8531" stroke="#4f74d8" stroke-width=".056423"/>
  <g fill="#4984d8">
   <path transform="matrix(.20078 0 0 .20078 26.829 2.3135)" d="m48.92 99.559c-12.045-1.8423-21.128-5.6651-28.867-12.15-13.281-11.128-19.363-29.583-15.105-45.839 0.88287-3.371 1.6129-5.2523 3.5647-9.1868 5.2242-10.531 12.87-17.489 24.242-22.059 7.2162-2.9001 13.579-4.1891 21.714-4.399 5.543-0.14302 9.4717 0.11399 13.285 0.86907 19.516 3.8648 34.504 16.152 40.109 32.88 3.6098 10.775 2.7246 22.74-2.4574 33.22-2.3561 4.7647-4.4072 7.6461-8.5171 11.965-6.72 7.0615-15.692 11.764-26.952 14.126-5.1307 1.0762-15.823 1.3682-21.015 0.57405z" stroke="#4f74d8" stroke-width=".056423"/>
   <path d="m33.807 7.8577 10.191-0.026037-0.71972 9.913-4.7659 1.9002-4.7439-1.3259-0.13213-2.1996" stroke="#fff" stroke-width="1.629"/>
   <path d="m37.591 12.888 6.0096-0.12476" stroke="#fff" stroke-width="1.5916"/>
  </g>
 </g>
 <g transform="matrix(1.3626 0 0 1.3626 -2.4631 -1.2148)" display="none" stroke-linecap="round" stroke-linejoin="round">
  <path d="m6.77 3.3382c-2.4113 1.3973-4.0936 3.9839-4.3931 6.7547-0.16734 1.5481 0.079869 3.138 0.70142 4.5658 0.62155 1.4277 1.6152 2.6904 2.8515 3.6371 1.7138 1.3123 3.8551 1.9965 6.0063 2.1735 2.4086 0.19819 4.9076-0.23716 6.9742-1.4901 1.4076-0.85346 2.5924-2.0771 3.3774-3.5241 0.78495-1.447 1.1652-3.1146 1.0593-4.7574-0.12391-1.9224-0.91584-3.7873-2.1733-5.2468-1.6645-1.9318-4.101-3.1225-6.624-3.4921-2.6511-0.38834-5.4236 0.10328-7.7796 1.3795z" display="none" fill="none" stroke="#000" stroke-width=".24371"/>
  <path transform="matrix(.19418 0 0 .19418 1.8077 .89158)" d="m50.02 99.834c-19.239-2.4163-34.127-12.101-41.67-27.108-1.7649-3.5111-3.1696-7.6147-4.0257-11.76-1.0075-4.8785-1.0049-12.461 0.0057662-17.179 3.2361-15.108 12.948-27.063 26.703-32.872 7.9679-3.3651 14.602-4.8431 23.047-5.1345 16.808-0.58004 31.811 4.9894 42.55 15.795 6.8124 6.8547 11.045 14.73 12.885 23.972 0.8403 4.2213 0.76183 11.878-0.1663 16.227-1.9758 9.2571-6.0804 16.837-12.723 23.497-8.1601 8.1803-18.908 13.133-31.665 14.592-3.4428 0.39361-11.707 0.37803-14.941-0.02819z" display="inline" fill="#eb8531" stroke="#eb8531" stroke-width=".079794"/>
  <path d="m9.4535 13.436 0.00698 2.4732 3.866 1.2237 3.514-1.4327-0.23698-4.8134-7.3717-0.0047-0.087561-4.439 7.5195 0.050124" display="inline" fill="none" stroke="#fff" stroke-width="1.6233"/>
 </g>
</svg>
