<svg width="30.406mm" height="27.451mm" version="1.1" viewBox="0 0 30.406 27.451" xmlns="http://www.w3.org/2000/svg">
 <g transform="matrix(.91805 0 0 .91805 -127.24 -29.626)" display="none">
  <text transform="matrix(.26458 0 0 .26458 -10.807 8.3576)" display="inline" fill="#000000" font-size="24px" style="shape-inside:url(#rect11981-9);white-space:pre" xml:space="preserve"/>
 </g>
 <g transform="matrix(.68025 0 0 .68025 -94.042 2.0199)" display="none">
  <path d="m144.78 6.8407-0.29712 23.268 0.0526-2.0155c-0.3044-0.21875-0.60064-0.44886-0.88788-0.6897-0.54571-0.45755-1.0589-0.95384-1.5345-1.4839-1.2876-1.4955-2.1742-3.3332-2.5434-5.2718-0.61429-3.2257 0.21845-6.6157 1.8423-9.4698 0.4962-0.87209 1.0647-1.7031 1.699-2.4805 0.52713-0.6461 1.0996-1.2552 1.7119-1.8213 0.10482 0.3601 0.26953 0.70269 0.48532 1.0094 0.19609 0.27874 0.43252 0.5262 0.65419 0.78506 0.89477 1.0449 1.5485 2.2767 2.073 3.5485 0.8653 2.0984 1.3984 4.364 1.2828 6.6309-0.14266 2.7964-1.2922 5.5153-3.1244 7.6326-0.50642 0.58521-1.0634 1.1266-1.6628 1.6162" fill="none" stroke="#000" stroke-linecap="round" stroke-linejoin="round" stroke-width=".704"/>
  <g>
   <text transform="matrix(.26458 0 0 .26458 1.3695 -19.774)" display="inline" fill="#000000" font-size="24px" style="shape-inside:url(#rect11981-1);white-space:pre" xml:space="preserve"/>
   <path d="m142.74 25.712c-2.2735-2.5199-3.2505-6.1502-2.5746-9.5669 0.4211-2.1287 1.8297-5.2483 3.0082-6.6625l0.99521-1.2519-0.19609 9.4882c5e-3 5.0514 0.0548 9.2832 9e-3 9.2832-0.0457 0-0.65028-0.63488-1.2415-1.2902z" fill="#309436" stroke="#309436" stroke-linecap="round" stroke-linejoin="round" stroke-width="1.0557"/>
   <path d="m144.9 26.585c0.0117-0.57763 0.0731-5.0088 0.1363-9.847 0.0633-4.8382 0.11837-8.8075 0.1225-8.8206 9e-3 -0.0275 0.733 0.77673 0.97455 1.082 1.3633 1.7229 2.5741 4.5656 2.9962 7.0347 0.14862 0.86935 0.19268 1.4819 0.17451 2.4254-0.0177 0.91939-0.0611 1.3281-0.22584 2.1308-0.43985 2.1421-1.552 4.2963-3.0932 5.9914-0.32647 0.35908-1.0355 1.0536-1.0755 1.0536-0.0188 0-0.0225-0.40813-0.01-1.0502z" fill="#49c450" stroke="#49c450" stroke-linecap="round" stroke-linejoin="round" stroke-width=".14653"/>
  </g>
 </g>
 <g transform="matrix(.9127 0 0 .9127 -36.832 -21.941)" display="none" fill="none" stroke-linecap="round" stroke-linejoin="round">
  <g stroke="#2155c8" stroke-width=".704">
   <path d="m48.203 32.346c0.05035 0.96725 0.59024 1.8965 1.4056 2.4192 0.76361 0.48958 1.7503 0.61447 2.6118 0.33058"/>
   <path d="m45.365 33.391c-0.21051 1.5677 0.39822 3.2227 1.5743 4.2803 0.71553 0.64345 1.6252 1.0681 2.5779 1.2035 0.95273 0.13538 1.9447-0.0191 2.8111-0.43777"/>
   <path d="m41.655 35.825c-0.02722 2.3523 1.1956 4.6831 3.1465 5.9976 1.0245 0.6903 2.231 1.1078 3.4631 1.1983 1.232 0.09049 2.4866-0.14623 3.601-0.67944"/>
  </g>
  <g stroke="#000" stroke-width=".47033">
   <path d="m54.505 40.936-0.07237 4.4381c0.02076 0.30932-0.09969 0.62534-0.32104 0.84238-0.22136 0.21704-0.5397 0.33124-0.84854 0.30439-0.26852-0.02334-0.52654-0.15167-0.70717-0.35172-0.18063-0.20006-0.28203-0.46979-0.27792-0.7393"/>
   <path d="m54.566 38.714c0.04576 0 0.09123-0.01884 0.12358-0.05119 0.03235-0.03235 0.05119-0.07783 0.05119-0.12358 0-0.04576-0.01884-0.09123-0.05119-0.12358-0.03235-0.03236-0.07783-0.05119-0.12358-0.05119-0.04576 0-0.09123 0.01884-0.12358 0.05119-0.03235 0.03235-0.05119 0.07783-0.05119 0.12358 0 0.04576 0.01884 0.09123 0.05119 0.12358 0.03235 0.03236 0.07783 0.05119 0.12358 0.05119z"/>
   <path d="m59.935 42.362c-0.59188 0.01339-1.184 0.01753-1.776 0.01241-0.33562-0.0029-0.67312-9e-3 -1.0031-0.07042-0.32996-0.06146-0.6548-0.18137-0.91679-0.39117-0.35827-0.2869-0.57466-0.72598-0.6523-1.1783-0.07764-0.45237-0.02615-0.91862 0.07947-1.3653 0.13486-0.57033 0.36641-1.133 0.77096-1.557 0.20228-0.21202 0.44634-0.38628 0.71878-0.49417 0.27244-0.10789 0.5736-0.14792 0.8626-0.09947 0.2439 0.04089 0.47618 0.14414 0.67466 0.29165 0.19849 0.14752 0.36337 0.33868 0.48696 0.55288 0.24718 0.4284 0.3252 0.94136 0.27619 1.4335-0.08199 0.8235-0.52113 1.6052-1.1817 2.1037"/>
   <path d="m60.548 39.655c-0.18192 0.33969-0.25103 0.7386-0.19398 1.1197 0.05705 0.38109 0.23996 0.74227 0.51339 1.0138 0.35678 0.35428 0.86679 0.54866 1.3689 0.52171l1.3348-0.0062"/>
   <path d="m63.138 39.71 0.0017 2.1026"/>
   <path d="m64.962 41.125c0.15575 0.05071 0.32553 0.05751 0.48484 0.01943 0.15931-0.03808 0.30766-0.12092 0.42365-0.23658 0.09385-0.09358 0.16688-0.20916 0.20399-0.33639 0.03711-0.12723 0.03731-0.26609-0.0064-0.39119-0.05971-0.17083-0.19912-0.30784-0.36353-0.38345s-0.3517-0.09319-0.53122-0.0704c-0.2604 0.03306-0.50865 0.1501-0.70372 0.32575-0.19507 0.17564-0.33679 0.40865-0.40862 0.66113-0.08144 0.28629-0.07234 0.59972 0.0381 0.87612 0.11044 0.2764 0.32387 0.51272 0.59345 0.6389 0.30016 0.14049 0.64441 0.14049 0.9758 0.13732 0.34932-0.0033 0.69864-0.0073 1.0479-0.01175"/>
   <path d="m69.522 39.818c-0.31273-0.14961-0.66405-0.21767-1.01-0.19567-0.34589 0.022-0.68567 0.13397-0.97687 0.32191l-0.03454 2.4699"/>
   <path d="m70.08 39.379 0.59762 1.2459"/>
   <path d="m72.218 39.052-1.1593 1.9845-0.08612 1.4148"/>
  </g>
 </g>
 <g transform="matrix(1.0539 0 0 .97322 -93.822 -33.99)" stroke-linecap="round" stroke-linejoin="round">
  <g fill="none" stroke-width="1.0931">
   <path d="m92.932 43.67 11.258-7.6632 9.9907 7.8988-0.0621 11.768-10.728 6.5193-10.477-6.7526 0.01848-11.77z" stroke="#000"/>
   <path d="m94.547 50.988-0.0174-2.7769 1.9173-1.1756 1.753 1.1776 0.0329 2.8047" stroke="#000"/>
   <path d="m101.76 46.986-2.0104 1.2279v2.6733l1.86 0.97935 1.9136-0.88813-6e-3 -2.7267-1.7571-1.2658z" stroke="#fff"/>
   <g stroke="#000">
    <path d="m107.95 48.189-1.311-0.79168-1.5651 0.97189 0.036 2.6092 1.6003 0.90535"/>
    <path d="m108.32 43.065-0.0315 7.9857-1.3866 0.83185"/>
    <path d="m112.73 48.51-1.3674-1.4155-1.6627 1.3767-0.0419 2.3241 1.5078 1.0855"/>
   </g>
  </g>
  <g fill="#70ba4f" stroke="#70ba4f" stroke-width=".27561">
   <path d="m98.437 58.304-4.9664-3.2002 5.8e-5 -2.0677c3.2e-5 -1.1372 0.01818-3.6455 0.0403-5.5739l0.04024-3.5063 5.2779-3.5925c2.9028-1.9759 5.3147-3.5838 5.3596-3.5731 0.045 0.01069 2.1762 1.6738 4.736 3.6958l4.6543 3.6764-5e-3 4.4664c-3e-3 2.4565-0.0221 4.9783-0.0428 5.604l-0.0376 1.1376-4.8614 2.9544c-2.6738 1.6249-4.944 3.005-5.045 3.0669l-0.18359 0.11251-4.9664-3.2002zm4.3309-6.3346c0.58488-0.26832 1.1181-0.54249 1.185-0.60925 0.11414-0.114 0.12264-0.21553 0.13964-1.6675 0.0138-1.1787-5.3e-4 -1.5818-0.0608-1.6964-0.11048-0.21046-2.0769-1.6157-2.2609-1.6157-0.1571 0-2.3728 1.3319-2.5048 1.5056-0.0606 0.07976-0.08 0.47548-0.0814 1.6627-2e-3 1.396 9e-3 1.5714 0.10441 1.6869 0.13 0.15753 2.1244 1.2184 2.294 1.2202 0.0669 7.94e-4 0.60008-0.21826 1.185-0.48658zm5.1804-0.02299c0.42612-0.25816 0.80667-0.52897 0.84565-0.60182 0.0512-0.09565 0.0788-1.292 0.0995-4.3068l0.0286-4.1744-0.18596-0.18596c-0.25375-0.25375-0.55907-0.2569-0.80765-0.0083l-0.17762 0.17763v2.2531c0 1.2392-0.0132 2.2531-0.0293 2.2531s-0.21202-0.11183-0.43532-0.2485c-0.63767-0.3903-0.64879-0.38882-1.6318 0.21669-0.46791 0.28821-0.91633 0.58886-0.9965 0.66812l-0.14575 0.1441 0.0111 1.5088c0.01 1.3327 0.0235 1.5259 0.11792 1.6553 0.0926 0.127 0.66417 0.47934 1.6513 1.018 0.46003 0.25102 0.73303 0.1902 1.6559-0.36889zm3.6462 0.32469c0.33138-0.40923 0.20144-0.66113-0.66006-1.2796l-0.69215-0.49693v-1.7198l1.0618-0.87442 0.57918 0.57701c0.55071 0.54864 0.59196 0.57701 0.83912 0.57701 0.35304 0 0.55824-0.20015 0.55824-0.5445 0-0.23156-0.0455-0.29461-0.76518-1.0611-0.77885-0.8295-0.99894-0.98979-1.2667-0.92258-0.12801 0.03213-0.6075 0.40408-1.8274 1.4175-0.20786 0.17269-0.24087 0.23726-0.27953 0.5469-0.0241 0.1931-0.0461 0.83038-0.049 1.4162-4e-3 0.86094 0.0126 1.0904 0.0873 1.197 0.0789 0.1126 0.86917 0.71103 1.6091 1.2184 0.26276 0.18019 0.63728 0.15644 0.80531-0.05107zm-13.086-0.75287c0.30993-0.16027 0.33234-0.31573 0.28603-1.9837-0.0232-0.8335-0.0584-1.5581-0.0784-1.6102-0.02-0.05209-0.49065-0.39912-1.0459-0.77117-0.80406-0.53877-1.0528-0.67658-1.2222-0.67702-0.28954-7.94e-4 -2.3331 1.2487-2.4317 1.4868-0.04302 0.10385-0.05943 0.6993-0.04753 1.7241l0.01818 1.5655 0.1705 0.14656c0.23924 0.20566 0.58004 0.1998 0.79348-0.01363l0.1602-0.1602 2.3e-4 -1.3438 2.2e-4 -1.3438 1.3219-0.81039 1.1506 0.76941 0.0392 0.41548c0.0216 0.22851 0.0394 0.84008 0.0397 1.359 2.7e-4 0.76779 0.0186 0.96953 0.0981 1.083 0.17242 0.24617 0.46461 0.31025 0.74754 0.16394z"/>
   <path d="m100.93 50.86-0.59147-0.31692-8e-4 -1.0027-7.9e-4 -1.0027 0.66905-0.41018c0.36798-0.2256 0.69005-0.41018 0.7157-0.41018 0.0256 0 0.30556 0.1863 0.62202 0.414l0.57538 0.414 0.0166 1.0307 0.0166 1.0307-0.63256 0.28716c-0.34792 0.15794-0.66984 0.28622-0.71539 0.28506-0.0456-0.0011-0.34898-0.14472-0.6743-0.31903z"/>
   <path d="m106.23 50.944-0.51651-0.29443-0.0141-0.99512-0.0141-0.99512 0.48187-0.2892 0.48188-0.2892 0.53492 0.32362c0.62669 0.37915 0.5999 0.30174 0.53453 1.5444l-0.0423 0.80345-0.42457 0.24478c-0.23352 0.13463-0.44268 0.244-0.46481 0.24304-0.0221-0.0011-0.27267-0.13424-0.55676-0.29618z"/>
  </g>
 </g>
 <g transform="matrix(.98741 0 0 .98741 -41.843 -58.416)" display="none" stroke-linecap="round" stroke-linejoin="round">
  <g fill="none" stroke="#000" stroke-width=".29484">
   <path d="m50.257 61.498c-2.9173 1.6904-4.9526 4.8198-5.3149 8.1719-0.20245 1.873 0.09663 3.7965 0.84859 5.5237 0.75196 1.7273 1.9541 3.2549 3.4498 4.4002 2.0733 1.5877 4.664 2.4154 7.2666 2.6295 2.9139 0.23978 5.9373-0.28692 8.4375-1.8028 1.703-1.0325 3.1364-2.513 4.086-4.2635 0.94965-1.7506 1.4096-3.7681 1.2815-5.7556-0.14991-2.3258-1.108-4.582-2.6293-6.3476-2.0137-2.3371-4.9615-3.7777-8.0139-4.2248-3.2074-0.46981-6.5616 0.12495-9.4119 1.6689z"/>
   <path d="m53.156 81.513c0.01351-0.53129 0.06841-1.0615 0.16402-1.5843 0.09471-0.51784 0.22936-1.0284 0.40237-1.5256"/>
   <path d="m53.722 78.352c-0.17898-0.22602-0.40282-0.41637-0.65465-0.55672-0.46092-0.25688-0.99479-0.33942-1.5089-0.45813-0.57291-0.13228-1.1577-0.32811-1.5732-0.74421-0.35141-0.35197-0.54778-0.8278-0.85055-1.2224-0.31134-0.40577-0.73208-0.71938-1.1891-0.94901-0.2699-0.13562-0.55373-0.2435-0.84557-0.32141"/>
   <path d="m47.163 74.071c0.30392-0.23584 0.69797-0.3524 1.0813-0.31983 0.41157 0.03497 0.79566 0.23464 1.1139 0.49802 0.37097 0.30706 0.66269 0.69892 1.0193 1.0226 0.27445 0.24911 0.58639 0.45645 0.92074 0.61641 0.80182 0.38362 1.7347 0.48643 2.6008 0.28665 0.0056-0.43713 0.15331-0.87131 0.4155-1.2211 0.27171-0.36251 0.66506-0.63215 1.1012-0.75485"/>
   <path d="m59.193 74.521c0.45284 0.10213 0.86333 0.38119 1.1249 0.76471 0.1812 0.26571 0.29069 0.57526 0.35411 0.89056 0.06341 0.3153 0.08235 0.63773 0.09464 0.9591 0.03417 0.89332 0.01838 1.7905 0.12727 2.6778 0.08414 0.68562 0.2427 1.3621 0.47201 2.0137"/>
   <path d="m55.391 74.214c-1.1267-0.11996-2.2113-0.60708-3.0495-1.3696-0.72068-0.65561-1.2603-1.5168-1.4951-2.4623-0.23059-0.92851-0.16163-1.9307 0.20476-2.8145 0.39306-0.94812 1.1276-1.7504 2.0374-2.2255-0.02174-0.42695 0.01487-0.85683 0.10849-1.274 0.10306-0.45919 0.27526-0.9028 0.50902-1.3112"/>
   <path d="m53.698 62.76c0.40176 0.19057 0.77282 0.4457 1.0946 0.75261 0.27863 0.26576 0.52032 0.57021 0.71594 0.90186 0.8104-0.25764 1.671-0.35633 2.5187-0.28883 0.8019 0.06385 1.5917 0.2762 2.3176 0.62307 0.34119-0.36869 0.73638-0.68733 1.169-0.94259 0.33602-0.19825 0.69452-0.35834 1.0664-0.47622"/>
   <path d="m62.674 63.355c0.04234 0.44832 0.03898 0.90095-0.01 1.3486-0.04557 0.4164-0.13059 0.82847-0.25357 1.2289 0.52265 0.4639 0.94766 1.0373 1.2395 1.6722 0.65696 1.4292 0.59296 3.1766-0.19802 4.5361-0.42774 0.73523-1.055 1.3531-1.7966 1.7697s-1.5955 0.63096-2.446 0.61385"/>
  </g>
  <path d="m61.371 81.208c-0.27131-0.92368-0.33257-1.4526-0.43106-3.722-0.06979-1.6081-0.20087-2.0768-0.72236-2.5829l-0.24672-0.23945 0.40464-0.08178c1.5532-0.31391 2.9649-1.51 3.5413-3.0004 0.57804-1.4948 0.44049-3.1962-0.36877-4.5611-0.13327-0.22478-0.39406-0.5726-0.57953-0.77292l-0.33722-0.36424 0.09942-0.4728c0.11641-0.55358 0.18857-1.6634 0.12885-1.9817-0.03074-0.16383-0.07882-0.23126-0.18366-0.25758-0.31028-0.07787-1.6732 0.64853-2.1522 1.1471l-0.20309 0.21137-0.34382-0.13863c-0.79852-0.32197-1.3711-0.42135-2.4403-0.42354-0.76529-0.0016-1.1153 0.02437-1.4785 0.10952-0.26171 0.06137-0.48151 0.10239-0.48845 0.09115-0.31039-0.50271-0.84943-1.0198-1.4233-1.3654-0.48694-0.29322-0.53005-0.28006-0.7734 0.23594-0.26881 0.56999-0.39101 1.0448-0.43553 1.6922l-0.03593 0.52241-0.2189 0.11564c-0.6056 0.31993-1.521 1.4195-1.822 2.1885-0.54715 1.3981-0.35342 3.1238 0.49596 4.4181 0.35547 0.54167 1.1521 1.2973 1.7357 1.6462 0.27438 0.16407 0.75576 0.38434 1.0698 0.48949l0.57088 0.19117-0.21082 0.16822c-0.30114 0.24028-0.61155 0.73916-0.71927 1.156-0.05097 0.19723-0.10895 0.37487-0.12883 0.39476-0.01987 0.01987-0.25217 0.04596-0.5162 0.05795-0.84533 0.03839-1.8053-0.26575-2.4256-0.76849-0.15123-0.12257-0.52107-0.47232-0.82187-0.77723-0.71613-0.72591-1.119-0.93669-1.7904-0.93669-0.37602 0-0.5237 0.0295-0.77527 0.15486-0.52561 0.26192-0.56296 0.44002-0.12009 0.57262 0.44234 0.13244 1.0375 0.46555 1.377 0.77072 0.18016 0.16194 0.49708 0.55421 0.70426 0.87172s0.48264 0.67831 0.61214 0.80179c0.33369 0.31818 0.89613 0.56062 1.8691 0.80568 0.95838 0.24138 1.2674 0.37289 1.5421 0.65635l0.19293 0.19906-0.11753 0.37763c-0.13895 0.44644-0.34162 1.5186-0.39636 2.0968-0.02135 0.2256-0.0487 0.41018-0.06076 0.41018-0.10529 0-1.0416-0.38066-1.5856-0.64463-3.463-1.6804-5.7688-4.871-6.2262-8.6155-0.10229-0.83732-0.03937-2.5048 0.12292-3.2579 0.20625-0.95698 0.48741-1.7433 0.95555-2.6725 1.0903-2.1641 2.6335-3.7118 4.7292-4.743 5.2568-2.5867 11.629-1.8235 15.712 1.8819 1.5145 1.3742 2.6772 3.3253 3.1811 5.3384 0.40163 1.6045 0.41997 3.0724 0.05856 4.6872-0.72896 3.2569-2.9026 5.9664-6.0016 7.481-0.6916 0.33801-2.0685 0.84603-2.2984 0.84801-0.07595 5.29e-4 -0.13607-0.10908-0.22425-0.40928z" stroke="#000" stroke-width=".27561"/>
  <text x="49.392788" y="86.485832" fill="#000000" font-size="5.0019px" stroke="#000000" stroke-width=".30383" xml:space="preserve"><tspan x="49.392788" y="86.485832" stroke-width=".30382">GitHub</tspan></text>
 </g>
 <g transform="matrix(1.4725 0 0 1.4725 -9.5899 -34.423)" display="none" stroke-linecap="round" stroke-linejoin="round">
  <g fill="none" stroke="#000" stroke-width="1.2">
   <path d="m23.027 38.967 0.78625-11.01-14.084 0.06434 0.83744 10.807 6.3947 2.2466 6.0652-2.1077z"/>
   <path d="m16.052 30.299-0.0091 7.2466-0.61764 0.44675-2.9039-1.2191-0.04223-0.95062"/>
   <path d="m20.642 30.222-2.7593 0.0189-7.02e-4 3.5311 3.224 0.0602-0.0755 3.0989-3.2023 1.2217"/>
  </g>
  <path d="m14.025 39.385-2.8359-0.99951-0.03194-0.14647c-0.01757-0.08056-0.18682-2.1864-0.37612-4.6797-0.1893-2.4933-0.35517-4.6219-0.3686-4.7303l-0.02441-0.19712 6.3719-0.02619c3.5045-0.01439 6.3752-0.02238 6.3792-0.01773 0.01434 0.01659-0.70205 9.9154-0.71847 9.9273-0.06534 0.0474-5.4113 1.8754-5.4766 1.8727-0.04567-0.0019-1.3592-0.45321-2.919-1.0029zm5.6541-1.2691c0.95302-0.36369 1.7276-0.68354 1.7842-0.73679 0.05509-0.05176 0.11926-0.1541 0.14258-0.22744 0.02332-0.07333 0.06223-0.87694 0.08646-1.7858 0.04089-1.534 0.03871-1.6634-0.03042-1.8041-0.14731-0.29995-0.24287-0.3288-1.1946-0.36068-0.46681-0.01564-1.097-0.02842-1.4004-0.02842h-0.55168v-2.3203h1.1286c1.0164 0 1.1434-0.0079 1.2769-0.07955 0.20913-0.11216 0.31065-0.26782 0.33137-0.50807 0.02117-0.24554-0.07912-0.43867-0.29804-0.57389-0.13463-0.08316-0.20072-0.08605-1.7104-0.0748-1.7408 0.01296-1.71 8e-3 -1.8905 0.30407-0.07975 0.13079-0.08373 0.23016-0.08373 2.0924 0 1.8634 0.0039 1.9615 0.08388 2.0926 0.16668 0.27336 0.22081 0.2829 1.7312 0.30506l1.3643 0.02-3.97e-4 0.82142c-2.14e-4 0.45178-0.01209 0.91889-0.02641 1.038l-0.02603 0.21661-1.455 0.55337c-1.6458 0.62594-1.6736 0.64264-1.7053 1.025-0.02307 0.27817 0.06082 0.46773 0.26102 0.5898 0.2606 0.1589 0.38778 0.12635 2.1823-0.55848zm-3.8494 0.35371c0.34646-0.22439 0.6762-0.49912 0.75585-0.62974 0.07867-0.12902 0.08172-0.27474 0.08188-3.9088 1.71e-4 -4.1938 0.01553-3.9709-0.2863-4.1574-0.2026-0.12522-0.56563-0.09984-0.72917 0.05096-0.23781 0.21929-0.23046 0.09477-0.23046 3.9052 0 3.2032-0.0063 3.5248-0.06879 3.5248-0.11471 0-2.1402-0.86288-2.1978-0.9363-0.03054-0.03889-0.05374-0.19-0.05378-0.35023-1.16e-4 -0.49693-0.21315-0.75618-0.61825-0.75236-0.16495 0.0016-0.26293 0.02908-0.36683 0.10307-0.23688 0.16868-0.27073 0.31266-0.23658 1.0065 0.03087 0.62725 0.06438 0.75458 0.24011 0.91246 0.08102 0.07279 2.4892 1.1145 3.0871 1.3354 0.19383 0.07161 0.40743 0.03611 0.62305-0.10354z" fill="#f7db4e" stroke="#f7db4e" stroke-width=".19488"/>
  <text x="8.4107018" y="26.347609" fill="#000000" font-size="3.354px" stroke="#000000" stroke-width=".20373" xml:space="preserve"><tspan x="8.4107018" y="26.347609" stroke-width=".20373">Javascript</tspan></text>
 </g>
 <g transform="matrix(1.0472 0 0 1.0472 -3.0073 -53.159)" display="none" stroke-linecap="round" stroke-linejoin="round">
  <g fill="none" stroke-width=".33338">
   <path d="m16.506 51.504c-3.2627 0.39064-6.2705 2.3235-8.1388 5.0267-0.98128 1.4199-1.6694 3.058-1.877 4.7715-0.23015 1.8996 0.13984 3.8557 0.97126 5.5792 0.36676 0.76026 0.82331 1.4803 1.3863 2.1092 1.0236 1.1435 2.383 1.9617 3.8387 2.448 1.4557 0.4863 3.0063 0.65045 4.5403 0.60411 2.3882-0.07214 4.8071-0.67459 6.7659-2.0429 1.426-0.99613 2.5741-2.3807 3.3106-3.9566 0.73644-1.5759 1.0619-3.3386 0.96047-5.0751-0.07657-1.311-0.39495-2.6104-0.96104-3.7954-0.89257-1.8684-2.4087-3.4323-4.2486-4.3823-1.9766-1.0982-4.3029-1.5552-6.5481-1.2864z" stroke="#000"/>
   <g stroke="#fa702a">
    <path d="m23.491 55.631c0.42552 0.30857 0.68841 0.82965 0.68375 1.3553-0.0038 0.43151-0.18439 0.85885-0.49114 1.1624-0.36121 0.42206-0.915 0.67237-1.4705 0.66464-0.55548-0.0077-1.1021-0.27336-1.4514-0.70532-0.25375-0.31378-0.4037-0.71048-0.41902-1.1137-0.01532-0.40326 0.10441-0.81078 0.337-1.1406 0.3092-0.4384 0.81831-0.72965 1.3529-0.77398 0.53463-0.04433 1.0848 0.1591 1.4619 0.5406l-1.6986 1.516 1.4109 1.1675"/>
    <path d="m23.496 56.73-0.28531 0.71328"/>
    <path d="m19.758 58.641c-0.0496-0.07123-0.1018-0.14064-0.15647-0.20805-0.25225-0.31101-0.55749-0.57894-0.89858-0.78874-1.4956 1.0397-2.9132 2.1916-4.237 3.4429-0.51624 0.48796-1.0182 0.991-1.5051 1.5083l1.819-0.08523-0.61425-1.0551"/>
    <path d="m14.871 62.431c0.98666-0.86065 2.0009-1.6896 3.0408-2.4852 0.60869-0.46572 1.2261-0.92 1.8519-1.3625"/>
    <path d="m15.632 63.509-0.8187-0.9325-0.38465 1.7504 1.3498-0.69482"/>
    <path d="m15.771 63.639 4.8917-3.8466-0.89564-1.2473"/>
    <path d="m20.678 59.845c-0.38587 1.0113-0.91395 1.9683-1.5639 2.834-0.69456 0.92512-1.5282 1.7456-2.4643 2.4254l-0.98454-1.3757"/>
    <path d="m16.627 65.077c-0.8246 0.48614-1.684 0.91318-2.5695 1.2768-1.0467 0.4298-2.1299 0.77086-3.234 1.0183l-0.16801 1.4478-1.4668-1.6528"/>
    <path d="m14.827 62.568-5.656 4.5648"/>
   </g>
  </g>
  <path d="m15.869 71.844c-3.2046-0.23113-5.716-1.4284-7.2703-3.466-0.81256-1.0652-1.4485-2.4747-1.7685-3.9196-0.28303-1.278-0.2663-2.9158 0.042733-4.1842 0.35669-1.464 1.1396-3.0287 2.1519-4.3007 0.39743-0.49938 1.3211-1.4258 1.8168-1.8223 1.6911-1.3526 3.8159-2.2573 5.8098-2.4736 0.60505-0.06565 1.7795-0.05551 2.3985 0.02072 2.7076 0.33342 5.3001 1.7237 6.887 3.6934 1.1648 1.4458 1.8789 3.1801 2.0952 5.0889 0.07594 0.67022 0.03021 2.2136-0.08411 2.8393-0.1952 1.0683-0.47426 1.9299-0.91462 2.8239-0.27449 0.55722-0.77857 1.3547-1.1483 1.8168-0.31019 0.3876-1.0791 1.1604-1.4653 1.4726-1.5458 1.2499-3.6048 2.0586-5.9297 2.3289-0.56874 0.06612-2.1545 0.11585-2.6211 0.08219zm-5.0436-2.9655c0.01561-0.06219 0.05948-0.38404 0.0975-0.71524 0.0505-0.43998 0.08648-0.61104 0.13357-0.6351 0.03545-0.0181 0.30615-0.09574 0.60156-0.17251 1.546-0.40178 3.0209-0.99861 4.7686-1.9297 1.2754-0.67948 2.8815-2.4263 3.8012-4.1344 0.27936-0.51883 0.62465-1.3227 0.62512-1.4554 3.97e-4 -0.1108-0.8949-1.4126-1.0026-1.4579-0.02811-0.01183-0.14748-0.12572-0.26525-0.25313-0.29085-0.31463-0.73941-0.64922-0.87036-0.64922-0.11187 0-0.34575 0.15491-1.1914 0.78913-1.2885 0.9663-2.5239 2.0279-3.7278 3.2033-0.92962 0.90761-1.0394 1.0385-1.0007 1.1929l0.02836 0.11301 1.5028-0.05164-0.48724 0.3952c-0.26798 0.21736-1.4677 1.1863-2.666 2.1532-1.706 1.3765-2.1788 1.7789-2.1788 1.8543 0 0.11042 0.049911 0.17286 0.91803 1.1485 0.54541 0.61298 0.65653 0.71767 0.76179 0.71767 0.09725 0 0.12921-0.02384 0.15161-0.11307zm12.056-9.9837c0.49888-0.15409 1.0461-0.62311 1.2794-1.0966 0.3611-0.73276 0.21218-1.5846-0.37871-2.1664-0.51573-0.50779-0.8907-0.68951-1.492-0.72307-0.64502-0.036-1.1272 0.15501-1.5741 0.62354-0.38374 0.40231-0.55026 0.82836-0.55026 1.4078 0 0.91622 0.62011 1.7319 1.5039 1.9782 0.30932 0.08621 0.8932 0.07487 1.2118-0.02352z" fill="#fa702a" stroke="#fa702a" stroke-width=".19488"/>
  <text x="7.7322345" y="75.723419" fill="#000000" font-size="4.5381px" stroke="#000000" stroke-width=".27565" xml:space="preserve"><tspan x="7.7322345" y="75.723419" stroke-width=".27565">postman</tspan></text>
 </g>
 <g transform="matrix(.93297 0 0 .93297 -86.409 -2.1451)" display="none" stroke-linecap="round" stroke-linejoin="round">
  <g fill="none" stroke="#50e4ef" stroke-width=".96876">
   <path d="m114.75 3.6128c-0.36219-0.20623-0.781-0.30557-1.1978-0.30806-0.41678-0.00249-0.83147 0.089869-1.2177 0.24662-0.77237 0.3135-1.4191 0.87355-1.9948 1.4764-1.7622 1.8452-2.9694 4.1368-4.1835 6.3809-1.7912 3.3108-3.6628 6.6268-4.6667 10.255-0.2203 0.79616-0.39886 1.6242-0.29507 2.4438 0.0519 0.40976 0.17577 0.81318 0.38819 1.1674 0.21241 0.35423 0.5157 0.65782 0.88352 0.84573 0.40109 0.20491 0.86787 0.26632 1.3145 0.20817 0.44663-0.05815 0.87366-0.23187 1.2553-0.47109 0.76323-0.47845 1.3356-1.2012 1.8906-1.9107 1.8324-2.3425 3.6511-4.7036 5.2189-7.2309 1.6398-2.6434 3.0078-5.4872 3.7054-8.5186 0.18939-0.82293 0.32918-1.6753 0.19947-2.5097-0.0649-0.41721-0.19806-0.8262-0.41473-1.1886-0.21668-0.36239-0.51872-0.67709-0.88564-0.88601z"/>
   <path d="m101.83 4.2848c-0.34385 0.23555-0.61632 0.56878-0.80078 0.94254-0.18446 0.37376-0.28269 0.7871-0.31054 1.203-0.0557 0.83173 0.16532 1.6582 0.45584 2.4396 0.88924 2.3915 2.4224 4.4791 3.9099 6.5521 2.1946 3.0584 4.3588 6.1912 7.1828 8.6802 0.61972 0.54623 1.2864 1.0689 2.0688 1.3338 0.39123 0.13247 0.80821 0.19742 1.2197 0.16122 0.41146-0.0362 0.81709-0.17628 1.1469-0.42499 0.3596-0.2712 0.61883-0.66422 0.7617-1.0914 0.14287-0.42714 0.17321-0.88716 0.12478-1.335-0.0968-0.89559-0.49685-1.7262-0.89248-2.5355-1.3062-2.6719-2.6343-5.34-4.2218-7.8549-1.6604-2.6305-3.6201-5.104-6.0415-7.0567-0.65718-0.52997-1.3625-1.0282-2.1695-1.2763-0.40349-0.12405-0.82944-0.18306-1.25-0.14666-0.42055 0.036407-0.83555 0.17041-1.1838 0.40897z"/>
   <path d="m121.47 13.886c-7e-3 -0.41673-0.13494-0.82772-0.34512-1.1876-0.21019-0.35991-0.50093-0.6697-0.83256-0.92216-0.66325-0.50492-1.4747-0.77612-2.2867-0.96441-2.4855-0.57633-5.0724-0.4477-7.622-0.34916-3.7615 0.14537-7.5684 0.22418-11.202 1.2086-0.79733 0.21603-1.6008 0.48424-2.2532 0.99106-0.32616 0.25341-0.61019 0.56553-0.80679 0.92877-0.1966 0.36324-0.30333 0.77889-0.27764 1.1911 0.02801 0.44953 0.21297 0.88248 0.49054 1.2372 0.27757 0.3547 0.64461 0.63366 1.0449 0.84017 0.80054 0.41302 1.7141 0.53736 2.6073 0.65347 2.9492 0.38336 5.9076 0.74553 8.881 0.80704 3.11 0.06434 6.254-0.20725 9.218-1.1513 0.80462-0.25627 1.6093-0.57021 2.2612-1.1069 0.32597-0.26836 0.61004-0.59133 0.81149-0.9624 0.20145-0.37107 0.31837-0.7913 0.31122-1.2135z"/>
   <path d="m109.89 13.955c-0.01-0.23819-0.13268-0.46923-0.3244-0.61093s-0.44857-0.1912-0.67922-0.13088c-0.16843 0.04405-0.32002 0.1433-0.43792 0.27139-0.1179 0.12809-0.20312 0.28414-0.26024 0.4486-0.0704 0.20269-0.0987 0.42536-0.0436 0.63272 0.0422 0.15849 0.13235 0.30296 0.25192 0.41519s0.26783 0.19254 0.42549 0.23768c0.31532 0.09028 0.65999 0.03848 0.95891-0.09652 0.10355-0.04677 0.20413-0.10428 0.28364-0.18545 0.13588-0.13871 0.19949-0.34466 0.1655-0.53584-0.034-0.19118-0.16468-0.36258-0.34004-0.44597z"/>
  </g>
  <text x="102.38661" y="31.022781" fill="#000000" font-size="5.2937px" stroke="#000000" stroke-width=".32155" xml:space="preserve"><tspan x="102.38661" y="31.022781" stroke-width=".32155">react</tspan></text>
 </g>
 <g transform="matrix(.98789 0 0 .98789 -53.502 -2.1403)" display="none">
  <path d="m55.005 14.537-0.01462-1.2904c1.3095 0.0046 2.6123-0.53974 3.5292-1.4747 0.60722-0.61916 1.0406-1.3886 1.3896-2.1825 0.42919-0.97622 0.74137-2.0038 0.92775-3.0538-0.02453-0.46828 0.19058-0.94285 0.5589-1.2331 0.32227-0.25393 0.75395-0.36379 1.1584-0.2948l14.724-0.069139c0.50867 0.064115 0.98815 0.33536 1.3051 0.73832 0.23908 0.30393 0.38595 0.67944 0.4165 1.0649 0.02329 1.231 0.37168 2.4543 1.0004 3.5128 0.54746 0.92173 1.3091 1.7204 2.2237 2.2796 0.55724 0.3407 1.169 0.59201 1.8048 0.7414l-0.0053 1.125" fill="none" stroke="#000" stroke-linecap="round" stroke-linejoin="round" stroke-width=".85062"/>
  <path d="m55.112 14.548c1.2783-0.10982 2.5956 0.38759 3.4823 1.3149 0.60806 0.63592 1.0067 1.4418 1.3359 2.2577 0.39859 0.98789 0.70946 2.0112 0.92775 3.0538-0.02453 0.46828 0.19058 0.94286 0.5589 1.2331 0.32227 0.25393 0.75395 0.36379 1.1584 0.2948l14.724 0.06915c0.50867-0.06412 0.98815-0.33536 1.3051-0.73832 0.23908-0.30393 0.38595-0.67944 0.4165-1.0649 0.05713-1.2271 0.40249-2.4398 1.0004-3.5128 0.50127-0.89964 1.1877-1.7086 2.0519-2.2689 0.59607-0.38648 1.2712-0.65043 1.9714-0.77072" fill="none" stroke="#000" stroke-linecap="round" stroke-linejoin="round" stroke-width=".85062"/>
  <text transform="matrix(.26458 0 0 .26458 -1.8149 -.90617)" display="inline" fill="#ffffff" font-size="64px" style="shape-inside:url(#rect10258-7);white-space:pre" xml:space="preserve"/>
  <g fill="#7262de" stroke="#7262de" stroke-linecap="round" stroke-linejoin="round" stroke-width=".27561">
   <path d="m62.025 22.199c-0.37872-0.13618-0.68961-0.51433-0.69005-0.83932-7.94e-4 -0.4911-0.6022-2.5118-1.0898-3.6607-0.69453-1.6367-1.4367-2.5064-2.6476-3.1026-0.6218-0.30613-1.0821-0.4383-1.7167-0.49294l-0.44056-0.03793v-0.20377c0-0.18168 0.01812-0.20381 0.16711-0.20419 0.3724-9.53e-4 1.2316-0.26072 1.8078-0.54658 1.4344-0.71162 2.4312-1.9805 3.222-4.1017 0.26388-0.70782 0.63669-2.1355 0.63669-2.4382 0-0.43825 0.33073-0.93871 0.69365-1.0497 0.10998-0.033621 3.3184-0.074177 7.762-0.098114l7.5745-0.040803 0.29478 0.13021c0.61788 0.27292 0.89237 0.72441 0.96203 1.5824 0.15504 1.9096 0.90124 3.5616 2.1827 4.8324 0.7689 0.7625 1.7233 1.3605 2.5735 1.6124 0.24379 0.07223 0.25826 0.08918 0.25826 0.30237 0 0.20303-0.01868 0.22959-0.18485 0.26282-0.38301 0.0766-1.1372 0.42295-1.6189 0.74345-1.5855 1.0549-2.7871 3.058-3.093 5.1561-0.04902 0.33613-0.11422 0.78719-0.1449 1.0023-0.06568 0.4606-0.27067 0.79039-0.66231 1.0655l-0.26192 0.184-7.7032 0.0033c-5.2531 0.0022-7.7599-0.01709-7.8813-0.06077zm9.767-2.2397c1.9558-0.47418 3.0886-1.8053 3.0927-3.6344 0.0013-0.61107-0.08389-1.0332-0.30361-1.5027-0.41181-0.88002-1.0284-1.3645-2.214-1.7398-0.10156-0.03214-0.08032-0.06267 0.14937-0.21473 0.42537-0.2816 0.89773-0.78092 1.068-1.1289 0.48662-0.99462 0.25634-2.4623-0.48705-3.1041-0.33252-0.28708-0.86068-0.54826-1.4236-0.70396-0.43542-0.12044-0.64222-0.12998-3.3053-0.1525l-2.8409-0.024021v12.353l2.932-0.02564c2.4132-0.0211 3.0028-0.04281 3.3323-0.12269z"/>
   <path d="m67.229 16.393v-2.2597l2.0205 0.02813c1.2296 0.01712 2.1226 0.05531 2.2813 0.09757 0.73943 0.19689 1.3223 0.6682 1.4742 1.1921 0.05285 0.18223 0.08725 0.55875 0.08606 0.94168-0.0016 0.52023-0.02609 0.69101-0.13249 0.92485-0.15671 0.3444-0.58923 0.78002-0.94413 0.9509-0.61494 0.29609-0.88082 0.32901-2.8864 0.35738l-1.899 0.02686z"/>
   <path d="m67.229 10.959v-1.7369l1.5344 4.498e-4c0.8439 2.524e-4 1.7083 0.028688 1.921 0.063189 0.48659 0.078956 0.92711 0.29962 1.1305 0.56628 0.48109 0.63074 0.2801 1.8943-0.3804 2.3913-0.48038 0.36148-0.71195 0.40034-2.5495 0.42787l-1.6559 0.02481z"/>
  </g>
  <text x="57.910133" y="27.263344" fill="#000000" font-size="4.9994px" stroke="#ffffff" stroke-linecap="round" stroke-linejoin="round" stroke-width=".30368" xml:space="preserve"><tspan x="57.910133" y="27.263344" fill="#000000" font-size="4.9994px" stroke="#000000" stroke-width=".30368">bootstrap</tspan></text>
 </g>
 <g transform="matrix(1.3177 0 0 1.3177 -35.354 -3.0486)" display="none" stroke-linecap="round" stroke-linejoin="round">
  <text transform="scale(.99998 1)" x="31.706219" y="7.5826507" fill="#000000" font-size="6.35px" stroke-width=".3" xml:space="preserve"><tspan x="31.706219" y="7.5826507" fill="#000000" font-size="6.35px" stroke-width=".3">CSS</tspan></text>
  <g fill="none" stroke-width="1.2">
   <path d="m35.353 11.203 7.507-0.01918-0.53018 7.3024-3.8165 1.3658-3.1888-0.94274-0.09733-1.6204" stroke="#fff"/>
   <path d="m35.929 14.895 6.6245-0.06434" stroke="#fff"/>
   <path d="m44.417 20.175 0.78625-11.01-14.084 0.06434 0.83744 10.807 6.3947 2.2466 6.0652-2.1077z" stroke="#000"/>
  </g>
  <path d="m35.398 20.579-2.7953-0.98844-0.04565-0.20495c-0.02511-0.11272-0.19608-2.2148-0.37995-4.6713-0.18387-2.4565-0.34555-4.5513-0.35929-4.6551l-0.02498-0.18875 6.3493-0.0449c3.4921-0.02469 6.3573-0.03547 6.3672-0.02394 0.03906 0.04575-0.69151 9.8555-0.73724 9.8992-0.08362 0.08-5.3288 1.8806-5.4573 1.8734-0.06678-0.0037-1.3793-0.45156-2.9167-0.9952zm5.2557-0.81808c1.1111-0.39943 2.0712-0.77234 2.1335-0.8287 0.06227-0.05635 0.12822-0.18758 0.14657-0.29161 0.01834-0.10403 0.15342-1.8428 0.30019-3.8639 0.2869-3.951 0.28684-3.9657-0.01818-4.1289-0.0843-0.04512-1.3678-0.06566-4.1023-0.06566h-3.9796l-0.17913 0.15073c-0.22238 0.18712-0.28298 0.45599-0.16593 0.73615 0.15892 0.38036 0.09578 0.37487 3.9275 0.34135 2.9286-0.02562 3.4573-0.0173 3.4576 0.05439 0.0011 0.19176-0.12946 1.9833-0.1577 2.1659l-0.03055 0.19749-2.595 0.0061c-1.4273 0.0033-2.864 0.02386-3.1928 0.04557-0.55662 0.03677-0.60788 0.05122-0.7444 0.20998-0.21798 0.2535-0.20224 0.60357 0.03795 0.84376l0.18456 0.18456 6.2576-0.04598-0.03096 0.24394c-0.01704 0.13417-0.06201 0.70881-0.09996 1.277-0.03795 0.56817-0.07258 1.0355-0.07695 1.0385-0.0044 3e-3 -0.73476 0.2642-1.6231 0.58045l-1.6151 0.57501-0.78517-0.23438c-0.43184-0.12891-1.007-0.30098-1.2782-0.38237l-0.493-0.148-0.04362-0.65114c-0.04771-0.71229-0.1242-0.92936-0.36634-1.0397-0.26718-0.12173-0.49952-0.08761-0.71475 0.10497-0.22471 0.20107-0.22684 0.22538-0.14004 1.6037 0.03847 0.61092 0.06495 0.74082 0.17772 0.87193 0.10794 0.12549 0.44758 0.24798 1.832 0.6607 0.9347 0.27865 1.7575 0.50839 1.8284 0.51052 0.0709 0.0021 1.038-0.32293 2.1492-0.72236z" fill="#346ecd" stroke="#306fd1" stroke-width=".27561"/>
 </g>
 <g transform="matrix(1.3626 0 0 1.3626 -2.4631 -1.2148)" display="none" stroke-linecap="round" stroke-linejoin="round">
  <path d="m19.138 17.752 0.78625-11.01-14.084 0.064343 0.83744 10.807 6.3947 2.2466z" fill="none" stroke="#d95604" stroke-width="1.2"/>
  <path d="m9.9348 14.607 0.0056 1.9806c0.87011 0.68283 1.9915 1.0378 3.096 0.97998 1.0308-0.05394 2.0395-0.46519 2.8141-1.1473l-0.18978-3.8547-5.9035-0.0037-0.07012-3.5549 5.8139-0.0888" fill="none" stroke="#fff" stroke-width="1.3"/>
  <text transform="scale(.99998 1)" x="5.8381977" y="5.0070043" fill="#000000" font-size="4.9389px" stroke-width=".3" xml:space="preserve"><tspan x="5.8381977" y="5.0070043" fill="#000000" font-size="4.9389px" stroke-width=".3">HTML</tspan></text>
  <path d="m10.166 18.179c-1.5834-0.55685-2.8837-1.0168-2.8895-1.0221s-0.17991-2.1948-0.38687-4.8655l-0.37629-4.8558 3.8244-0.028461c2.1034-0.015653 4.9727-0.028473 6.3762-0.028487l2.5518-2.64e-5 -0.02436 0.22559c-0.0134 0.12407-0.17526 2.3559-0.35968 4.9597l-0.33532 4.7341-2.7322 0.94854c-1.5027 0.5217-2.7406 0.94773-2.7507 0.94674-0.01017-9.79e-4 -1.314-0.4574-2.8974-1.0143zm4.5762-0.57576c0.81533-0.33363 1.5182-0.63882 1.562-0.67819 0.24407-0.21953 0.34518-0.82791 0.34402-2.0698-7.15e-4 -0.75435-0.01757-1.0145-0.09193-1.418-0.12594-0.68341-0.27853-1.185-0.40089-1.3177-0.21462-0.2328-0.16644-0.22919-3.06-0.22919h-2.6808l-0.02267-1.1064c-0.01247-0.60854-0.02006-1.1093-0.01688-1.1127 0.0032-0.00345 1.195-0.022918 2.6484-0.043267 2.55-0.035699 2.6478-0.040079 2.7928-0.12496 0.46592-0.27278 0.46314-0.93061-0.0049-1.1665l-0.18829-0.094883-2.9219 0.042776c-1.6071 0.023526-3.0065 0.053268-3.1099 0.066091-0.13988 0.017351-0.23331 0.065587-0.36523 0.18856l-0.17727 0.16525-0.012409 0.55105c-0.00682 0.30308 0.00294 1.2217 0.021693 2.0413 0.032223 1.4082 0.038968 1.4968 0.12249 1.6087 0.048611 0.06511 0.14177 0.15825 0.20702 0.20697 0.11628 0.08684 0.17456 0.08902 2.9407 0.11008l2.8221 0.02148 0.07746 0.4082c0.08428 0.44416 0.11292 1.8671 0.04318 2.1452-0.0366 0.14595-0.04577 0.15075-1.1282 0.59082-0.60021 0.24402-1.117 0.44368-1.1485 0.44368-0.04656 0-1.0104-0.29796-2.1731-0.67176l-0.2041-0.06562v-0.79939c0-0.91083-0.04533-1.0851-0.32772-1.2596-0.22356-0.13817-0.60972-0.10384-0.79384 0.07057-0.073253 0.06939-0.15256 0.1745-0.17624 0.23358-0.025707 0.06414-0.040372 0.58179-0.036397 1.2848 0.0072 1.2741 0.018807 1.3449 0.24549 1.497 0.06195 0.04158 0.84949 0.31193 1.7501 0.60077 1.2854 0.41226 1.6744 0.52114 1.8093 0.50642 0.09453-0.01032 0.83896-0.29173 1.6543-0.62536z" fill="#d8641d" stroke="#b95619" stroke-width=".19488"/>
 </g>
</svg>
