<svg width="55.347mm" height="44.204mm" version="1.1" viewBox="0 0 55.347 44.204" xmlns="http://www.w3.org/2000/svg">
 <g transform="translate(-8.1331 -8.9657)">
  <g fill="none" stroke="#090c0f" stroke-linecap="round" stroke-linejoin="round" stroke-width=".704">
   <path d="m11.265 10.887c0.3198 1.8526 0.51471 3.7268 0.58298 5.6056 0.038 1.0458 0.03681 2.0927 0.04485 3.1392 0.0093 1.2071 0.03083 2.4141 0.04484 3.6212 0.02108 1.8168 0.02499 3.6354-0.08969 5.4487-0.03476 0.54953-0.08039 1.0983-0.11211 1.6481-0.12619 2.1869-0.03184 4.3795 0 6.5698 0.0377 2.5934-0.0123 5.1872-0.04485 7.7806-0.03395 2.7055-0.0489 5.4112-0.04484 8.117"/>
   <path d="m8.4851 12.704c0.68891 0.2624 1.417 0.42167 2.1525 0.47087 1.1572 0.0774 2.3143-0.11615 3.453-0.33634 1.1796-0.22809 2.3542-0.48571 3.5427-0.66146 1.7351-0.25659 3.499-0.33744 5.2468-0.19059 0.50136 0.04212 1.001 0.10289 1.5023 0.14575 1.394 0.11916 2.7974 0.09938 4.193 0 1.9478-0.13871 3.8821-0.43195 5.8298-0.57178 1.1789-0.08463 2.3635-0.11291 3.5427-0.03363 0.60574 0.04073 1.2096 0.10979 1.8162 0.13454 0.70952 0.02895 1.4201-0.0028 2.1301 0.01121 0.74791 0.01479 1.4942 0.0804 2.2422 0.08969 2.0685 0.02568 4.1204-0.37912 6.1886-0.42603 0.8818-0.02 1.7645 0.02514 2.6458-0.01121 0.90506-0.03733 1.8076-0.16056 2.7131-0.13454 0.9471 0.02723 1.8816 0.2173 2.8252 0.3027 0.76774 0.06949 1.5418 0.06949 2.3095 0"/>
   <path d="m58.711 9.3177c-0.26601 1.1164-0.32712 2.2813-0.17938 3.4194 0.08956 0.68994 0.25496 1.3696 0.31391 2.0629 0.06177 0.7264 0.0058 1.4574 0.02241 2.1862 0.015 0.65918 0.0893 1.3154 0.13454 1.9732 0.14518 2.111-0.0092 4.2297-0.02244 6.3456-0.0049 0.782 0.0096 1.5653 0.08969 2.3432 0.03315 0.32186 0.07752 0.64247 0.11211 0.96417 0.33917 3.1538-0.26446 6.3462 0 9.5072 0.03504 0.41877 0.08528 0.83628 0.11211 1.2557 0.07519 1.1751-0.03388 2.3545 0 3.5316 0.04193 1.4565 0.30192 2.9231 0.06727 4.3612-0.02256 0.13826-0.04966 0.27584-0.06727 0.41482-0.05504 0.43434-0.01666 0.87422 0 1.3117 0.02908 0.76369-0.0085 1.5299-0.11211 2.2871"/>
   <path d="m8.8214 50.912c0.41523 0.26118 0.88345 0.43773 1.3678 0.51572 0.87282 0.14056 1.762-0.0378 2.6458-0.05606 0.8001-0.01653 1.6 0.09856 2.3992 0.05606 1.0187-0.05418 2.0096-0.36288 3.027-0.43724 0.99205-0.0725 1.9881 0.07918 2.9822 0.04485 0.6074-0.02097 1.2102-0.11126 1.8162-0.15696 1.0963-0.08267 2.1975-0.01921 3.2961 0.02244 2.4135 0.0915 4.8315 0.07747 7.2424-0.06727 1.3973-0.08389 2.8031-0.21145 4.193-0.04485 1.3235 0.15865 2.6033 0.58099 3.9239 0.76237 1.3347 0.18332 2.6893 0.11787 4.036 0.15696 0.91197 0.02647 1.8243 0.10105 2.7355 0.05606 0.92092-0.04546 1.8312-0.2126 2.7355-0.39239 1.863-0.37038 3.729-0.79784 5.628-0.84085 0.72506-0.01642 1.45 0.02346 2.175 0.04484 0.77712 0.02292 1.5547 0.02458 2.3319 0.04485 0.59086 0.01541 1.1814 0.04158 1.7714 0.07848"/>
   <path d="m17.23 50.631c-0.12404-1.8205-0.16147-3.647-0.11211-5.4711 0.04894-1.8087 0.19901-3.674 1.0314-5.2805 0.47062-0.90826 1.1487-1.7037 1.9471-2.3432 1.1312-0.90608 2.4999-1.4983 3.9218-1.7787 1.6415-0.32378 3.3626-0.2363 4.9628 0.25228"/>
   <path d="m27.073 20.529c-0.73586 1.5251-1.1654 3.1972-1.2556 4.8881-0.06596 1.2356 0.04822 2.4808 0.3378 3.6838 0.39058 1.4416 0.92909 2.8431 1.6043 4.1753 1.1355 2.2403 2.6711 4.2947 4.6052 5.8971 0.42865 0.35516 0.8786 0.68931 1.3737 0.94382 0.49508 0.25451 1.0386 0.42797 1.595 0.44718 0.70274 0.02427 1.399-0.19951 2.0074-0.55198 0.60843-0.35247 1.136-0.8295 1.6211-1.3385 1.2187-1.2786 2.1988-2.7838 2.8751-4.4155 0.604-1.6576 1.0081-3.3879 1.2007-5.1416 0.11647-1.0604 0.15586-2.1287 0.13454-3.1952-0.04661-2.3314-0.42462-4.7607-1.7938-6.6483-0.15128-0.20856-0.31391-0.40926-0.49329-0.5942-0.76506-0.78878-1.7948-1.2553-2.8028-1.6929-0.49629-0.21548-0.99711-0.42947-1.5247-0.54935-0.74-0.16814-1.5111-0.14588-2.2647-0.05606-1.6616 0.19806-3.2696 0.7178-4.8208 1.3454-0.49337 0.1996-0.98717 0.41315-1.4159 0.72848-0.42875 0.31533-0.79231 0.74414-0.93842 1.2559-0.07563 0.26492-0.09108 0.54683-0.04484 0.81842z"/>
   <path d="m41.716 35.602c0.81388-0.03965 1.6277-0.08118 2.4413-0.1246 1.3215-0.07052 2.6885-0.13938 3.9256 0.33072 0.46436 0.17647 0.90013 0.42644 1.2914 0.73253 1.1108 0.86901 1.8429 2.2059 1.9768 3.6099l0.23173 4.5779-0.22423 6.4821"/>
   <path d="m40.796 36.651c-0.30026 0.50654-0.58447 1.0226-0.85205 1.5472-0.42089 0.82509-0.8013 1.6724-1.2781 2.4665-0.3463 0.57681-0.74172 1.1226-1.0987 1.6929-0.72622 1.1601-1.2889 2.4142-1.8162 3.6773-0.31045 0.74366-0.6096 1.4924-0.87447 2.2535-0.0497 0.14282-0.09834 0.2866-0.12723 0.43504-0.02889 0.14844-0.03762 0.3025-0.0073 0.45066 0.01101 0.0538 0.02718 0.10734 0.02617 0.16225-5.06e-4 0.02746-0.0055 0.05509-0.01703 0.07999-0.01158 0.0249-0.03008 0.04696-0.05399 0.06046-0.02286 0.01291-0.05005 0.01756-0.07609 0.01422-0.02604-0.0033-0.05085-0.0145-0.07144-0.03078-0.04118-0.03257-0.06418-0.08426-0.07041-0.13639-0.0062-0.05213 0.0028-0.10496 0.01646-0.15566 0.01364-0.0507 0.03186-0.1001 0.04453-0.15105 0.04359-0.17519 0.01952-0.36139-0.0343-0.53371s-0.13633-0.33398-0.21234-0.49773c-0.14116-0.3041-0.2608-0.61763-0.38118-0.93054-0.61753-1.6051-1.258-3.2018-1.9507-4.776-0.2694-0.61218-0.54712-1.2218-0.87447-1.805-0.44302-0.78935-0.97526-1.5275-1.3902-2.3319-0.30698-0.59521-0.54809-1.2244-0.71751-1.8723-0.34842 1.0242-0.74986 2.0304-1.2022 3.0132-0.68026 1.478-1.4757 2.903-2.3768 4.2577 0.8742 0.06328 1.7502 0.10116 2.6266 0.11357 0.64533 0.0091 1.2908 0.0045 1.936-0.01399-0.08583 0.62759-0.14186 1.2593-0.16784 1.8922-0.03157 0.76896-0.01875 1.5397 0.03835 2.3072 1.0268 0.97098 2.4194 1.5455 3.8321 1.5809 0.26195 0.0066 0.52435-0.0047 0.78478-0.03363"/>
   <path d="m41.516 35.506c0.31368 1.1317 0.68738 2.2467 1.119 3.3388 0.61547 1.5573 1.3488 3.0681 2.1917 4.515-0.84753-0.1646-1.7089-0.25765-2.5721-0.27783-0.94752-0.02216-1.8971 0.04353-2.8325 0.19596 0.03279 0.83862 0.08052 1.6767 0.14315 2.5136 0.05673 0.758 0.12569 1.5151 0.20684 2.2708-0.67751 0.34535-1.3859 0.63001-2.114 0.84947-0.95106 0.28665-1.9357 0.46182-2.9272 0.52076"/>
  </g>
  <path d="m24.072 21.748c0.05337 0.81798 0.16905 1.6487 0.52821 2.3856 0.18242 0.37425 0.42984 0.72292 0.75805 0.97906 0.32822 0.25615 0.7422 0.41434 1.1579 0.39163 0.40431-0.02209 0.78695-0.21268 1.0925-0.47838 0.30554-0.2657 0.54046-0.6033 0.7424-0.95426 0.44557-0.77439 0.74858-1.634 1.2867-2.3472 0.73576-0.97518 1.893-1.61 3.1066-1.7498 1.4158-0.16306 2.8319 0.31673 4.1017 0.96384 0.96171 0.49011 1.8796 1.0826 2.9036 1.424 0.51199 0.17069 1.0495 0.27661 1.5891 0.26571 0.53959-0.01089 1.082-0.14218 1.5448-0.4198 0.68448-0.41058 1.1534-1.1149 1.4285-1.8641 0.25132-0.68435 0.35794-1.4215 0.31084-2.149-0.45138-1.0938-1.1986-2.0639-2.141-2.7795-1.6057-1.2193-3.6959-1.6549-5.7117-1.613-1.2226 0.02546-2.4489 0.21603-3.5929 0.64814-0.66466 0.25105-1.3114 0.58562-2.0172 0.66731-0.73755 0.08536-1.4776-0.11311-2.22-0.12266-0.90268-0.01162-1.804 0.26375-2.5577 0.76059s-1.3589 1.2112-1.7443 2.0276c-0.57602 1.2203-0.65411 2.6176-0.56625 3.9642z"/>
  <g fill="none" stroke="#090c0f" stroke-linecap="round" stroke-linejoin="round" stroke-width=".704">
   <path d="m29.046 27.278c0.38265-0.48117 0.87806-0.87208 1.435-1.1323 0.33579-0.15691 0.6973-0.2674 1.0675-0.28466 0.37024-0.01726 0.75016 0.06282 1.0626 0.26224 0.1255 0.08011 0.2392 0.17865 0.33633 0.29149"/>
   <path d="m36.32 26.09c0.76606-0.68725 1.6729-0.81519 2.6324-0.45525 0.64442 0.24173 1.1303 0.85596 1.2602 0.9831"/>
   <path d="m35.223 29.153c0.0366 0.77684 0.17422 1.4176 0.30795 1.6693 0.18441 0.34706 0.62691 1.2098 0.44684 1.4495-0.23237 0.30936-0.59226 0.3813-1.143 0.14079"/>
   <path d="m33.576 34.961c0.58837 0.29623 0.81538 0.32039 1.3535 0.37511 0.838 0.08521 1.196-0.14322 1.9605-0.4619"/>
  </g>
  <g>
   <path transform="matrix(.26458 0 0 .26458 8.1331 8.9657)" d="m101.26 117.74c-3.4864-0.71853-7.0099-3.0201-11.897-7.7713-4.1669-4.0511-6.6606-7.0625-9.6981-11.711-3.7964-5.8104-7.0131-12.647-9.1701-19.488-1.4064-4.4609-1.8526-7.0349-2.041-11.774l-0.17755-4.466h1.2421c1.7419 0 3.8666-1.1237 5.2468-2.7749 0.64577-0.77255 2.1886-3.3509 3.4284-5.7297 2.5597-4.9111 3.685-6.4957 5.9551-8.3857 4.2967-3.5774 10.078-4.7427 16.212-3.2675 3.2353 0.77822 6.1259 2.0024 11.231 4.7565 4.7355 2.5547 7.847 3.8359 10.628 4.3762 1.915 0.37204 5.4145 0.27677 6.6043-0.1798 0.67849-0.26036 0.78837 0.06536 1.447 4.2896 0.66989 4.2966 0.76079 15.612 0.16383 20.395-0.90435 7.2458-2.9206 15.441-4.9415 20.085-3.1258 7.1832-9.2109 15.14-14.485 18.94-3.1786 2.2903-6.8388 3.3067-9.7485 2.707zm6.5709-17.878c2.5681-1.2621 3.0614-2.1542 1.6886-3.0537-0.74058-0.48524-0.93861-0.45518-3.3428 0.50751-2.2665 0.90757-2.8031 1.0026-4.744 0.83984-1.2036-0.10091-2.8746-0.48699-3.7132-0.85796-1.6781-0.7423-2.579-0.64028-2.886 0.32677-0.35401 1.1154 0.15161 1.8723 1.627 2.4358 2.4269 0.92683 3.4774 1.0934 6.336 1.0048 2.3909-0.0742 3.0655-0.23536 5.0344-1.203zm-2.7572-9.7395c2.0273-1.0317 2.171-3.0688 0.48043-6.813-0.74316-1.6459-1.2528-3.4055-1.4602-5.0412-0.17522-1.382-0.48365-2.7117-0.6854-2.9547-0.48688-0.58666-1.7314-0.56284-2.234 0.04277-0.77736 0.93666 0.19747 6.3942 1.6667 9.3313 1.3499 2.6984 1.282 2.9817-0.65295 2.725-0.87044-0.11547-1.8205-0.11866-2.1112-0.0071-0.64286 0.24669-0.70897 1.8529-0.09717 2.3607 1.0339 0.85808 3.7363 1.0471 5.0938 0.35624zm-23.735-21.138c0.95985-0.9155 2.6797-2.1019 3.8218-2.6363 2.699-1.263 5.2312-1.1913 7.055 0.19977 1.2657 0.9654 2.3503 1.0206 2.8975 0.1475 0.51461-0.82116-0.18823-2.0442-1.7802-3.0977-1.26-0.83384-1.6191-0.9064-4.4858-0.9064-2.869 0-3.2889 0.08503-5.2933 1.0718-2.2822 1.1235-5.5952 3.8843-5.931 4.9425-0.28273 0.89082 0.3896 1.9434 1.2414 1.9434 0.43428 0 1.4359-0.6737 2.4747-1.6645zm41.206-2.0897c0.0822-0.84032-0.18058-1.2561-1.705-2.6978-0.99116-0.9374-2.4965-2.0133-3.3452-2.3909-2.1217-0.94397-5.9706-1.155-8.1095-0.44453-2.1861 0.72611-4.3145 2.3253-4.3145 3.2417 0 1.5418 1.5746 1.9794 3.0228 0.84023 3.1526-2.4799 7.4234-2.0749 10.717 1.0163 1.3418 1.2594 1.8885 1.5687 2.6629 1.5066 0.82838-0.06646 0.98897-0.22706 1.0716-1.0716z" fill="#f0dec9"/>
   <path transform="matrix(.26458 0 0 .26458 8.1331 8.9657)" d="m96.845 138.34c-4.8118-12.093-7.5965-18.094-11.066-23.849-2.8111-4.6629-4.5983-8.0741-4.3431-8.2895 0.04915-0.0415 1.2833 1.275 2.7425 2.9254 2.8721 3.2485 7.7528 7.4885 10.57 9.1823 3.0709 1.8463 5.262 2.4789 8.5388 2.4649 2.3523-0.01 3.3498-0.17748 5.1076-0.85756 2.2516-0.87116 5.4656-2.8762 6.5545-4.0889 0.3403-0.37901 0.74471-0.6891 0.89867-0.6891 0.46244 0-1.2646 3.1455-4.28 7.7953-1.564 2.4117-3.7375 6.172-4.8301 8.3562-1.9701 3.9386-5.6668 12.579-6.0713 14.191-0.11579 0.46134-0.30861 0.83881-0.42848 0.83881s-1.6467-3.5908-3.393-7.9794z" fill="#f0dec9"/>
   <path transform="matrix(.26458 0 0 .26458 8.1331 8.9657)" d="m102.15 150.66c0-0.70365 2.1346-6.4317 4.2166-11.315 2.3214-5.445 4.8192-10.176 7.843-14.856 3.3187-5.1365 10.677-19.073 10.677-20.222 0-1.7262 0.58157-0.92184 1.5989 2.2114 1.95 6.006 5.6158 14.55 9.0439 21.079 0.0663 0.12632-2.3377 0.14227-5.3423 0.0354-5.5012-0.1956-11.601 0.24531-12.882 0.93124-0.57437 0.3074-0.60274 0.6087-0.40272 4.2768 0.26513 4.8622 0.79749 11.717 1.0162 13.085 0.16211 1.0138 0.1495 1.0238-2.782 2.1971-3.4437 1.3783-8.1633 2.6564-10.99 2.9763-1.8303 0.20707-1.9958 0.17405-1.9958-0.39819z" fill="#a8d5e8"/>
   <path transform="matrix(.26458 0 0 .26458 8.1331 8.9657)" d="m136.25 159.98c-8.3791-0.24691-9.0998-0.33901-17.377-2.2205l-5.1968-1.1813-7.9577 4e-3c-4.3767 2e-3 -11.616 0.15667-16.088 0.34353-5.2947 0.22127-11.808 0.23845-18.676 0.0493-7.3918-0.20361-12.052-0.1799-15.581 0.0792-2.7689 0.20335-8.2739 0.39387-12.233 0.42338l-7.1988 0.0537-0.24164-2.9232c-0.37356-4.519-0.26623-21.056 0.16021-24.685 1.1407-9.708 4.4315-16.155 10.714-20.991 5.7694-4.4406 12.95-6.7798 20.81-6.7798 3.2241 0 9.2626 0.70275 9.6872 1.1274 0.24852 0.24852-3.634 9.5144-5.8024 13.848-2.0201 4.037-5.3528 9.893-6.8486 12.034-0.73618 1.0537-0.77086 2.0041-0.09364 2.5662 0.533 0.44235 6.8462 0.89675 13.001 0.93576l3.2785 0.0208-0.15653 7.3186-0.15653 7.3186 1.5876 1.4693c1.8553 1.7171 6.568 4.1394 9.4531 4.8589 6.8955 1.7196 16.729 0.57958 25.382-2.9425 4.4598-1.8155 4.3938-1.7415 4.1585-4.6619-0.25422-3.1549-0.83326-11.055-0.97233-13.266-0.0795-1.2644 0.0148-1.7383 0.3733-1.8759 1.4462-0.55498 9.5861-0.55955 14.119-8e-3 6.7851 0.82559 6.8969 0.66433 3.6405-5.2538-3.3379-6.0664-8.5657-18.527-9.3995-22.405l-0.22099-1.0276 2.1388-0.22905c4.0417-0.43283 15.468-0.34737 17.389 0.13006 6.4858 1.6125 11.784 6.8923 13.442 13.395 0.90423 3.5463 1.338 18.759 0.90259 31.658-0.21586 6.3957-0.43198 11.668-0.48027 11.716-0.0483 0.0483-1.3971 0.33024-2.9974 0.62657-3.486 0.64551-11.242 0.80897-22.56 0.47547z" fill="#acc7df"/>
   <path transform="matrix(.26458 0 0 .26458 8.1331 8.9657)" d="m94.518 151.2c-3.7562-0.56494-7.8223-2.293-10.099-4.292l-1.1982-1.052 0.20903-6.0162c0.11497-3.3089 0.28821-6.747 0.38498-7.6402 0.09677-0.89321 0.04411-1.8182-0.11704-2.0556-0.22543-0.33211-2.0351-0.45953-7.8479-0.55257-4.1552-0.0665-7.6129-0.17891-7.6838-0.24977-0.07086-0.0709 0.69905-1.5031 1.7109-3.1827 2.0752-3.4446 6.428-12.213 7.8774-15.869l0.96006-2.4214 0.79963 1.7718c0.4398 0.97452 2.1907 4.0756 3.8909 6.8913 1.7002 2.8157 4.0733 7.3467 5.2736 10.069 3.3302 7.553 9.5748 23.315 9.5748 24.168 0 0.84193-0.57072 0.90793-3.7352 0.43198z" fill="#a8d5e8"/>
   <path transform="matrix(.26458 0 0 .26458 8.1331 8.9657)" d="m19.643 158.84-4.7017-0.16973 0.28286-42.129c0.42164-62.798 0.43233-86.951 0.04135-93.46l-0.35178-5.8566h1.0716c0.58939 0 5.4017-0.81537 10.694-1.8119 13.969-2.6304 19.944-3.0996 29.468-2.3144 9.5724 0.78926 19.463 0.71162 28.142-0.22095 16.343-1.756 17.327-1.7891 36.895-1.2396 16.289 0.45742 19.872 0.43441 25.805-0.16574 9.6093-0.97197 32.443-1.6832 36.62-1.1407 1.8384 0.23876 3.6747 0.44049 4.0807 0.44829 1.8847 0.03621 3.1365 17.894 3.1405 44.8 1e-3 8.114 0.23077 16.448 0.51245 18.603 0.33801 2.5862 0.40795 8.2468 0.20715 16.766-0.16672 7.0739-0.0806 20.82 0.19146 30.546 0.27202 9.7266 0.35961 21.325 0.19463 25.774l-0.29996 8.0897-6.9356 0.25694c-5.7542 0.21318-15.796 1.5077-18.671 2.407-0.63421 0.19837-0.71185-1.9009-0.71807-19.416-8e-3 -21.859-0.21566-23.884-2.9856-29.081-1.7786-3.337-5.882-7.2663-9.2305-8.8388-4.1843-1.965-7.0838-2.3137-16.556-1.9909-4.8435 0.16508-8.6126 0.11753-8.6126-0.10867 0-0.22122 0.40853-1.3258 0.90784-2.4545 1.4443-3.2652 3.6183-12.325 4.419-18.416 0.8472-6.444 0.67665-20.183-0.31056-25.017l-0.58798-2.8787 1.4357-1.485c2.3756-2.4573 3.928-6.4489 4.1506-10.672l0.19363-3.6747-2.3632-3.5329c-2.737-4.0916-5.8391-6.7596-10.371-8.9198-5.5484-2.6446-8.2944-3.1671-16.536-3.1465-8.0155 0.01999-10.224 0.42639-16.708 3.0748-3.4157 1.3951-3.6927 1.4318-11.082 1.4656-7.3731 0.03375-7.6478 0.06984-10.106 1.3276-2.9569 1.5132-6.4544 4.783-8.0839 7.5577-0.63324 1.0783-1.58 3.6556-2.104 5.7275-0.79658 3.15-0.91349 4.6723-0.71375 9.2934 0.29075 6.7266 1.418 10.722 3.7399 13.257 1.5839 1.7292 1.5939 1.7677 1.6215 6.1913 0.03394 5.4449 1.1933 11.22 3.4758 17.313 1.7785 4.7476 4.9713 11.434 6.9774 14.612l1.1484 1.8191-1.3082-0.2846c-0.7195-0.15653-3.2876-0.42024-5.7069-0.58601-14.234-0.97535-27.524 5.6873-33.424 16.755-3.3667 6.3166-4.431 14.305-4.1122 30.867l0.21897 11.377-1.8795 0.26081c-3.4457 0.47815-6.4311 0.59003-11.175 0.41879z" fill="#e1f4ea"/>
  </g>
 </g>
</svg>
